<?xml version="1.0" encoding="utf-8" standalone="no"?>
<!DOCTYPE svg PUBLIC "-//W3C//DTD SVG 1.1//EN"
  "http://www.w3.org/Graphics/SVG/1.1/DTD/svg11.dtd">
<!-- Created with matplotlib (https://matplotlib.org/) -->
<svg height="345.6pt" version="1.1" viewBox="0 0 460.8 345.6" width="460.8pt" xmlns="http://www.w3.org/2000/svg" xmlns:xlink="http://www.w3.org/1999/xlink">
 <defs>
  <style type="text/css">
*{stroke-linecap:butt;stroke-linejoin:round;}
  </style>
 </defs>
 <g id="figure_1">
  <g id="patch_1">
   <path d="M 0 345.6 
L 460.8 345.6 
L 460.8 0 
L 0 0 
z
" style="fill:#ffffff;"/>
  </g>
  <g id="axes_1">
   <g id="patch_2">
    <path d="M 57.6 307.584 
L 414.72 307.584 
L 414.72 41.472 
L 57.6 41.472 
z
" style="fill:#ffffff;"/>
   </g>
   <g id="matplotlib.axis_1">
    <g id="xtick_1">
     <g id="line2d_1">
      <defs>
       <path d="M 0 0 
L 0 3.5 
" id="me3ed261583" style="stroke:#000000;stroke-width:0.8;"/>
      </defs>
      <g>
       <use style="stroke:#000000;stroke-width:0.8;" x="73.832727" xlink:href="#me3ed261583" y="307.584"/>
      </g>
     </g>
     <g id="text_1">
      <!-- 0 -->
      <defs>
       <path d="M 31.78125 66.40625 
Q 24.171875 66.40625 20.328125 58.90625 
Q 16.5 51.421875 16.5 36.375 
Q 16.5 21.390625 20.328125 13.890625 
Q 24.171875 6.390625 31.78125 6.390625 
Q 39.453125 6.390625 43.28125 13.890625 
Q 47.125 21.390625 47.125 36.375 
Q 47.125 51.421875 43.28125 58.90625 
Q 39.453125 66.40625 31.78125 66.40625 
z
M 31.78125 74.21875 
Q 44.046875 74.21875 50.515625 64.515625 
Q 56.984375 54.828125 56.984375 36.375 
Q 56.984375 17.96875 50.515625 8.265625 
Q 44.046875 -1.421875 31.78125 -1.421875 
Q 19.53125 -1.421875 13.0625 8.265625 
Q 6.59375 17.96875 6.59375 36.375 
Q 6.59375 54.828125 13.0625 64.515625 
Q 19.53125 74.21875 31.78125 74.21875 
z
" id="DejaVuSans-48"/>
      </defs>
      <g transform="translate(70.651477 322.182437)scale(0.1 -0.1)">
       <use xlink:href="#DejaVuSans-48"/>
      </g>
     </g>
    </g>
    <g id="xtick_2">
     <g id="line2d_2">
      <g>
       <use style="stroke:#000000;stroke-width:0.8;" x="140.59622" xlink:href="#me3ed261583" y="307.584"/>
      </g>
     </g>
     <g id="text_2">
      <!-- 1 -->
      <defs>
       <path d="M 12.40625 8.296875 
L 28.515625 8.296875 
L 28.515625 63.921875 
L 10.984375 60.40625 
L 10.984375 69.390625 
L 28.421875 72.90625 
L 38.28125 72.90625 
L 38.28125 8.296875 
L 54.390625 8.296875 
L 54.390625 0 
L 12.40625 0 
z
" id="DejaVuSans-49"/>
      </defs>
      <g transform="translate(137.41497 322.182437)scale(0.1 -0.1)">
       <use xlink:href="#DejaVuSans-49"/>
      </g>
     </g>
    </g>
    <g id="xtick_3">
     <g id="line2d_3">
      <g>
       <use style="stroke:#000000;stroke-width:0.8;" x="207.359713" xlink:href="#me3ed261583" y="307.584"/>
      </g>
     </g>
     <g id="text_3">
      <!-- 2 -->
      <defs>
       <path d="M 19.1875 8.296875 
L 53.609375 8.296875 
L 53.609375 0 
L 7.328125 0 
L 7.328125 8.296875 
Q 12.9375 14.109375 22.625 23.890625 
Q 32.328125 33.6875 34.8125 36.53125 
Q 39.546875 41.84375 41.421875 45.53125 
Q 43.3125 49.21875 43.3125 52.78125 
Q 43.3125 58.59375 39.234375 62.25 
Q 35.15625 65.921875 28.609375 65.921875 
Q 23.96875 65.921875 18.8125 64.3125 
Q 13.671875 62.703125 7.8125 59.421875 
L 7.8125 69.390625 
Q 13.765625 71.78125 18.9375 73 
Q 24.125 74.21875 28.421875 74.21875 
Q 39.75 74.21875 46.484375 68.546875 
Q 53.21875 62.890625 53.21875 53.421875 
Q 53.21875 48.921875 51.53125 44.890625 
Q 49.859375 40.875 45.40625 35.40625 
Q 44.1875 33.984375 37.640625 27.21875 
Q 31.109375 20.453125 19.1875 8.296875 
z
" id="DejaVuSans-50"/>
      </defs>
      <g transform="translate(204.178463 322.182437)scale(0.1 -0.1)">
       <use xlink:href="#DejaVuSans-50"/>
      </g>
     </g>
    </g>
    <g id="xtick_4">
     <g id="line2d_4">
      <g>
       <use style="stroke:#000000;stroke-width:0.8;" x="274.123206" xlink:href="#me3ed261583" y="307.584"/>
      </g>
     </g>
     <g id="text_4">
      <!-- 3 -->
      <defs>
       <path d="M 40.578125 39.3125 
Q 47.65625 37.796875 51.625 33 
Q 55.609375 28.21875 55.609375 21.1875 
Q 55.609375 10.40625 48.1875 4.484375 
Q 40.765625 -1.421875 27.09375 -1.421875 
Q 22.515625 -1.421875 17.65625 -0.515625 
Q 12.796875 0.390625 7.625 2.203125 
L 7.625 11.71875 
Q 11.71875 9.328125 16.59375 8.109375 
Q 21.484375 6.890625 26.8125 6.890625 
Q 36.078125 6.890625 40.9375 10.546875 
Q 45.796875 14.203125 45.796875 21.1875 
Q 45.796875 27.640625 41.28125 31.265625 
Q 36.765625 34.90625 28.71875 34.90625 
L 20.21875 34.90625 
L 20.21875 43.015625 
L 29.109375 43.015625 
Q 36.375 43.015625 40.234375 45.921875 
Q 44.09375 48.828125 44.09375 54.296875 
Q 44.09375 59.90625 40.109375 62.90625 
Q 36.140625 65.921875 28.71875 65.921875 
Q 24.65625 65.921875 20.015625 65.03125 
Q 15.375 64.15625 9.8125 62.3125 
L 9.8125 71.09375 
Q 15.4375 72.65625 20.34375 73.4375 
Q 25.25 74.21875 29.59375 74.21875 
Q 40.828125 74.21875 47.359375 69.109375 
Q 53.90625 64.015625 53.90625 55.328125 
Q 53.90625 49.265625 50.4375 45.09375 
Q 46.96875 40.921875 40.578125 39.3125 
z
" id="DejaVuSans-51"/>
      </defs>
      <g transform="translate(270.941956 322.182437)scale(0.1 -0.1)">
       <use xlink:href="#DejaVuSans-51"/>
      </g>
     </g>
    </g>
    <g id="xtick_5">
     <g id="line2d_5">
      <g>
       <use style="stroke:#000000;stroke-width:0.8;" x="340.886698" xlink:href="#me3ed261583" y="307.584"/>
      </g>
     </g>
     <g id="text_5">
      <!-- 4 -->
      <defs>
       <path d="M 37.796875 64.3125 
L 12.890625 25.390625 
L 37.796875 25.390625 
z
M 35.203125 72.90625 
L 47.609375 72.90625 
L 47.609375 25.390625 
L 58.015625 25.390625 
L 58.015625 17.1875 
L 47.609375 17.1875 
L 47.609375 0 
L 37.796875 0 
L 37.796875 17.1875 
L 4.890625 17.1875 
L 4.890625 26.703125 
z
" id="DejaVuSans-52"/>
      </defs>
      <g transform="translate(337.705448 322.182437)scale(0.1 -0.1)">
       <use xlink:href="#DejaVuSans-52"/>
      </g>
     </g>
    </g>
    <g id="xtick_6">
     <g id="line2d_6">
      <g>
       <use style="stroke:#000000;stroke-width:0.8;" x="407.650191" xlink:href="#me3ed261583" y="307.584"/>
      </g>
     </g>
     <g id="text_6">
      <!-- 5 -->
      <defs>
       <path d="M 10.796875 72.90625 
L 49.515625 72.90625 
L 49.515625 64.59375 
L 19.828125 64.59375 
L 19.828125 46.734375 
Q 21.96875 47.46875 24.109375 47.828125 
Q 26.265625 48.1875 28.421875 48.1875 
Q 40.625 48.1875 47.75 41.5 
Q 54.890625 34.8125 54.890625 23.390625 
Q 54.890625 11.625 47.5625 5.09375 
Q 40.234375 -1.421875 26.90625 -1.421875 
Q 22.3125 -1.421875 17.546875 -0.640625 
Q 12.796875 0.140625 7.71875 1.703125 
L 7.71875 11.625 
Q 12.109375 9.234375 16.796875 8.0625 
Q 21.484375 6.890625 26.703125 6.890625 
Q 35.15625 6.890625 40.078125 11.328125 
Q 45.015625 15.765625 45.015625 23.390625 
Q 45.015625 31 40.078125 35.4375 
Q 35.15625 39.890625 26.703125 39.890625 
Q 22.75 39.890625 18.8125 39.015625 
Q 14.890625 38.140625 10.796875 36.28125 
z
" id="DejaVuSans-53"/>
      </defs>
      <g transform="translate(404.468941 322.182437)scale(0.1 -0.1)">
       <use xlink:href="#DejaVuSans-53"/>
      </g>
     </g>
    </g>
    <g id="text_7">
     <!-- Time -->
     <defs>
      <path d="M -0.296875 72.90625 
L 61.375 72.90625 
L 61.375 64.59375 
L 35.5 64.59375 
L 35.5 0 
L 25.59375 0 
L 25.59375 64.59375 
L -0.296875 64.59375 
z
" id="DejaVuSans-84"/>
      <path d="M 9.421875 54.6875 
L 18.40625 54.6875 
L 18.40625 0 
L 9.421875 0 
z
M 9.421875 75.984375 
L 18.40625 75.984375 
L 18.40625 64.59375 
L 9.421875 64.59375 
z
" id="DejaVuSans-105"/>
      <path d="M 52 44.1875 
Q 55.375 50.25 60.0625 53.125 
Q 64.75 56 71.09375 56 
Q 79.640625 56 84.28125 50.015625 
Q 88.921875 44.046875 88.921875 33.015625 
L 88.921875 0 
L 79.890625 0 
L 79.890625 32.71875 
Q 79.890625 40.578125 77.09375 44.375 
Q 74.3125 48.1875 68.609375 48.1875 
Q 61.625 48.1875 57.5625 43.546875 
Q 53.515625 38.921875 53.515625 30.90625 
L 53.515625 0 
L 44.484375 0 
L 44.484375 32.71875 
Q 44.484375 40.625 41.703125 44.40625 
Q 38.921875 48.1875 33.109375 48.1875 
Q 26.21875 48.1875 22.15625 43.53125 
Q 18.109375 38.875 18.109375 30.90625 
L 18.109375 0 
L 9.078125 0 
L 9.078125 54.6875 
L 18.109375 54.6875 
L 18.109375 46.1875 
Q 21.1875 51.21875 25.484375 53.609375 
Q 29.78125 56 35.6875 56 
Q 41.65625 56 45.828125 52.96875 
Q 50 49.953125 52 44.1875 
z
" id="DejaVuSans-109"/>
      <path d="M 56.203125 29.59375 
L 56.203125 25.203125 
L 14.890625 25.203125 
Q 15.484375 15.921875 20.484375 11.0625 
Q 25.484375 6.203125 34.421875 6.203125 
Q 39.59375 6.203125 44.453125 7.46875 
Q 49.3125 8.734375 54.109375 11.28125 
L 54.109375 2.78125 
Q 49.265625 0.734375 44.1875 -0.34375 
Q 39.109375 -1.421875 33.890625 -1.421875 
Q 20.796875 -1.421875 13.15625 6.1875 
Q 5.515625 13.8125 5.515625 26.8125 
Q 5.515625 40.234375 12.765625 48.109375 
Q 20.015625 56 32.328125 56 
Q 43.359375 56 49.78125 48.890625 
Q 56.203125 41.796875 56.203125 29.59375 
z
M 47.21875 32.234375 
Q 47.125 39.59375 43.09375 43.984375 
Q 39.0625 48.390625 32.421875 48.390625 
Q 24.90625 48.390625 20.390625 44.140625 
Q 15.875 39.890625 15.1875 32.171875 
z
" id="DejaVuSans-101"/>
     </defs>
     <g transform="translate(223.7725 335.860562)scale(0.1 -0.1)">
      <use xlink:href="#DejaVuSans-84"/>
      <use x="61.037109" xlink:href="#DejaVuSans-105"/>
      <use x="88.820312" xlink:href="#DejaVuSans-109"/>
      <use x="186.232422" xlink:href="#DejaVuSans-101"/>
     </g>
    </g>
   </g>
   <g id="matplotlib.axis_2">
    <g id="ytick_1">
     <g id="line2d_7">
      <defs>
       <path d="M 0 0 
L -3.5 0 
" id="mca1369e773" style="stroke:#000000;stroke-width:0.8;"/>
      </defs>
      <g>
       <use style="stroke:#000000;stroke-width:0.8;" x="57.6" xlink:href="#mca1369e773" y="292.828869"/>
      </g>
     </g>
     <g id="text_8">
      <!-- −0.06 -->
      <defs>
       <path d="M 10.59375 35.5 
L 73.1875 35.5 
L 73.1875 27.203125 
L 10.59375 27.203125 
z
" id="DejaVuSans-8722"/>
       <path d="M 10.6875 12.40625 
L 21 12.40625 
L 21 0 
L 10.6875 0 
z
" id="DejaVuSans-46"/>
       <path d="M 33.015625 40.375 
Q 26.375 40.375 22.484375 35.828125 
Q 18.609375 31.296875 18.609375 23.390625 
Q 18.609375 15.53125 22.484375 10.953125 
Q 26.375 6.390625 33.015625 6.390625 
Q 39.65625 6.390625 43.53125 10.953125 
Q 47.40625 15.53125 47.40625 23.390625 
Q 47.40625 31.296875 43.53125 35.828125 
Q 39.65625 40.375 33.015625 40.375 
z
M 52.59375 71.296875 
L 52.59375 62.3125 
Q 48.875 64.0625 45.09375 64.984375 
Q 41.3125 65.921875 37.59375 65.921875 
Q 27.828125 65.921875 22.671875 59.328125 
Q 17.53125 52.734375 16.796875 39.40625 
Q 19.671875 43.65625 24.015625 45.921875 
Q 28.375 48.1875 33.59375 48.1875 
Q 44.578125 48.1875 50.953125 41.515625 
Q 57.328125 34.859375 57.328125 23.390625 
Q 57.328125 12.15625 50.6875 5.359375 
Q 44.046875 -1.421875 33.015625 -1.421875 
Q 20.359375 -1.421875 13.671875 8.265625 
Q 6.984375 17.96875 6.984375 36.375 
Q 6.984375 53.65625 15.1875 63.9375 
Q 23.390625 74.21875 37.203125 74.21875 
Q 40.921875 74.21875 44.703125 73.484375 
Q 48.484375 72.75 52.59375 71.296875 
z
" id="DejaVuSans-54"/>
      </defs>
      <g transform="translate(19.954687 296.628088)scale(0.1 -0.1)">
       <use xlink:href="#DejaVuSans-8722"/>
       <use x="83.789062" xlink:href="#DejaVuSans-48"/>
       <use x="147.412109" xlink:href="#DejaVuSans-46"/>
       <use x="179.199219" xlink:href="#DejaVuSans-48"/>
       <use x="242.822266" xlink:href="#DejaVuSans-54"/>
      </g>
     </g>
    </g>
    <g id="ytick_2">
     <g id="line2d_8">
      <g>
       <use style="stroke:#000000;stroke-width:0.8;" x="57.6" xlink:href="#mca1369e773" y="254.284811"/>
      </g>
     </g>
     <g id="text_9">
      <!-- −0.04 -->
      <g transform="translate(19.954687 258.08403)scale(0.1 -0.1)">
       <use xlink:href="#DejaVuSans-8722"/>
       <use x="83.789062" xlink:href="#DejaVuSans-48"/>
       <use x="147.412109" xlink:href="#DejaVuSans-46"/>
       <use x="179.199219" xlink:href="#DejaVuSans-48"/>
       <use x="242.822266" xlink:href="#DejaVuSans-52"/>
      </g>
     </g>
    </g>
    <g id="ytick_3">
     <g id="line2d_9">
      <g>
       <use style="stroke:#000000;stroke-width:0.8;" x="57.6" xlink:href="#mca1369e773" y="215.740753"/>
      </g>
     </g>
     <g id="text_10">
      <!-- −0.02 -->
      <g transform="translate(19.954687 219.539971)scale(0.1 -0.1)">
       <use xlink:href="#DejaVuSans-8722"/>
       <use x="83.789062" xlink:href="#DejaVuSans-48"/>
       <use x="147.412109" xlink:href="#DejaVuSans-46"/>
       <use x="179.199219" xlink:href="#DejaVuSans-48"/>
       <use x="242.822266" xlink:href="#DejaVuSans-50"/>
      </g>
     </g>
    </g>
    <g id="ytick_4">
     <g id="line2d_10">
      <g>
       <use style="stroke:#000000;stroke-width:0.8;" x="57.6" xlink:href="#mca1369e773" y="177.196694"/>
      </g>
     </g>
     <g id="text_11">
      <!-- 0.00 -->
      <g transform="translate(28.334375 180.995913)scale(0.1 -0.1)">
       <use xlink:href="#DejaVuSans-48"/>
       <use x="63.623047" xlink:href="#DejaVuSans-46"/>
       <use x="95.410156" xlink:href="#DejaVuSans-48"/>
       <use x="159.033203" xlink:href="#DejaVuSans-48"/>
      </g>
     </g>
    </g>
    <g id="ytick_5">
     <g id="line2d_11">
      <g>
       <use style="stroke:#000000;stroke-width:0.8;" x="57.6" xlink:href="#mca1369e773" y="138.652636"/>
      </g>
     </g>
     <g id="text_12">
      <!-- 0.02 -->
      <g transform="translate(28.334375 142.451855)scale(0.1 -0.1)">
       <use xlink:href="#DejaVuSans-48"/>
       <use x="63.623047" xlink:href="#DejaVuSans-46"/>
       <use x="95.410156" xlink:href="#DejaVuSans-48"/>
       <use x="159.033203" xlink:href="#DejaVuSans-50"/>
      </g>
     </g>
    </g>
    <g id="ytick_6">
     <g id="line2d_12">
      <g>
       <use style="stroke:#000000;stroke-width:0.8;" x="57.6" xlink:href="#mca1369e773" y="100.108578"/>
      </g>
     </g>
     <g id="text_13">
      <!-- 0.04 -->
      <g transform="translate(28.334375 103.907797)scale(0.1 -0.1)">
       <use xlink:href="#DejaVuSans-48"/>
       <use x="63.623047" xlink:href="#DejaVuSans-46"/>
       <use x="95.410156" xlink:href="#DejaVuSans-48"/>
       <use x="159.033203" xlink:href="#DejaVuSans-52"/>
      </g>
     </g>
    </g>
    <g id="ytick_7">
     <g id="line2d_13">
      <g>
       <use style="stroke:#000000;stroke-width:0.8;" x="57.6" xlink:href="#mca1369e773" y="61.56452"/>
      </g>
     </g>
     <g id="text_14">
      <!-- 0.06 -->
      <g transform="translate(28.334375 65.363738)scale(0.1 -0.1)">
       <use xlink:href="#DejaVuSans-48"/>
       <use x="63.623047" xlink:href="#DejaVuSans-46"/>
       <use x="95.410156" xlink:href="#DejaVuSans-48"/>
       <use x="159.033203" xlink:href="#DejaVuSans-54"/>
      </g>
     </g>
    </g>
    <g id="text_15">
     <!-- Amplitude -->
     <defs>
      <path d="M 34.1875 63.1875 
L 20.796875 26.90625 
L 47.609375 26.90625 
z
M 28.609375 72.90625 
L 39.796875 72.90625 
L 67.578125 0 
L 57.328125 0 
L 50.6875 18.703125 
L 17.828125 18.703125 
L 11.1875 0 
L 0.78125 0 
z
" id="DejaVuSans-65"/>
      <path d="M 18.109375 8.203125 
L 18.109375 -20.796875 
L 9.078125 -20.796875 
L 9.078125 54.6875 
L 18.109375 54.6875 
L 18.109375 46.390625 
Q 20.953125 51.265625 25.265625 53.625 
Q 29.59375 56 35.59375 56 
Q 45.5625 56 51.78125 48.09375 
Q 58.015625 40.1875 58.015625 27.296875 
Q 58.015625 14.40625 51.78125 6.484375 
Q 45.5625 -1.421875 35.59375 -1.421875 
Q 29.59375 -1.421875 25.265625 0.953125 
Q 20.953125 3.328125 18.109375 8.203125 
z
M 48.6875 27.296875 
Q 48.6875 37.203125 44.609375 42.84375 
Q 40.53125 48.484375 33.40625 48.484375 
Q 26.265625 48.484375 22.1875 42.84375 
Q 18.109375 37.203125 18.109375 27.296875 
Q 18.109375 17.390625 22.1875 11.75 
Q 26.265625 6.109375 33.40625 6.109375 
Q 40.53125 6.109375 44.609375 11.75 
Q 48.6875 17.390625 48.6875 27.296875 
z
" id="DejaVuSans-112"/>
      <path d="M 9.421875 75.984375 
L 18.40625 75.984375 
L 18.40625 0 
L 9.421875 0 
z
" id="DejaVuSans-108"/>
      <path d="M 18.3125 70.21875 
L 18.3125 54.6875 
L 36.8125 54.6875 
L 36.8125 47.703125 
L 18.3125 47.703125 
L 18.3125 18.015625 
Q 18.3125 11.328125 20.140625 9.421875 
Q 21.96875 7.515625 27.59375 7.515625 
L 36.8125 7.515625 
L 36.8125 0 
L 27.59375 0 
Q 17.1875 0 13.234375 3.875 
Q 9.28125 7.765625 9.28125 18.015625 
L 9.28125 47.703125 
L 2.6875 47.703125 
L 2.6875 54.6875 
L 9.28125 54.6875 
L 9.28125 70.21875 
z
" id="DejaVuSans-116"/>
      <path d="M 8.5 21.578125 
L 8.5 54.6875 
L 17.484375 54.6875 
L 17.484375 21.921875 
Q 17.484375 14.15625 20.5 10.265625 
Q 23.53125 6.390625 29.59375 6.390625 
Q 36.859375 6.390625 41.078125 11.03125 
Q 45.3125 15.671875 45.3125 23.6875 
L 45.3125 54.6875 
L 54.296875 54.6875 
L 54.296875 0 
L 45.3125 0 
L 45.3125 8.40625 
Q 42.046875 3.421875 37.71875 1 
Q 33.40625 -1.421875 27.6875 -1.421875 
Q 18.265625 -1.421875 13.375 4.4375 
Q 8.5 10.296875 8.5 21.578125 
z
M 31.109375 56 
z
" id="DejaVuSans-117"/>
      <path d="M 45.40625 46.390625 
L 45.40625 75.984375 
L 54.390625 75.984375 
L 54.390625 0 
L 45.40625 0 
L 45.40625 8.203125 
Q 42.578125 3.328125 38.25 0.953125 
Q 33.9375 -1.421875 27.875 -1.421875 
Q 17.96875 -1.421875 11.734375 6.484375 
Q 5.515625 14.40625 5.515625 27.296875 
Q 5.515625 40.1875 11.734375 48.09375 
Q 17.96875 56 27.875 56 
Q 33.9375 56 38.25 53.625 
Q 42.578125 51.265625 45.40625 46.390625 
z
M 14.796875 27.296875 
Q 14.796875 17.390625 18.875 11.75 
Q 22.953125 6.109375 30.078125 6.109375 
Q 37.203125 6.109375 41.296875 11.75 
Q 45.40625 17.390625 45.40625 27.296875 
Q 45.40625 37.203125 41.296875 42.84375 
Q 37.203125 48.484375 30.078125 48.484375 
Q 22.953125 48.484375 18.875 42.84375 
Q 14.796875 37.203125 14.796875 27.296875 
z
" id="DejaVuSans-100"/>
     </defs>
     <g transform="translate(13.875 200.150656)rotate(-90)scale(0.1 -0.1)">
      <use xlink:href="#DejaVuSans-65"/>
      <use x="68.408203" xlink:href="#DejaVuSans-109"/>
      <use x="165.820312" xlink:href="#DejaVuSans-112"/>
      <use x="229.296875" xlink:href="#DejaVuSans-108"/>
      <use x="257.080078" xlink:href="#DejaVuSans-105"/>
      <use x="284.863281" xlink:href="#DejaVuSans-116"/>
      <use x="324.072266" xlink:href="#DejaVuSans-117"/>
      <use x="387.451172" xlink:href="#DejaVuSans-100"/>
      <use x="450.927734" xlink:href="#DejaVuSans-101"/>
     </g>
    </g>
   </g>
   <g id="line2d_14">
    <path clip-path="url(#p2f1c7f6cf9)" d="M 73.832727 295.488 
L 76.055952 283.46279 
L 78.28066 252.575625 
L 87.17504 142.67 
L 89.398265 122.068406 
L 91.622231 99.750012 
L 93.846197 84.291202 
L 96.069421 70.556806 
L 98.293387 61.980422 
L 100.516612 56.830023 
L 102.739836 61.980422 
L 107.187768 82.566789 
L 109.410993 101.451584 
L 111.635701 122.053179 
L 113.858925 146.103599 
L 116.082149 164.988394 
L 120.531565 213.051168 
L 122.752564 230.226777 
L 124.977272 245.677973 
L 127.200496 269.705553 
L 129.42372 278.289551 
L 131.648428 285.156749 
L 136.094877 281.738377 
L 138.319585 273.154379 
L 140.542809 262.853582 
L 142.766034 250.835985 
L 144.991483 228.517591 
L 147.213966 213.066395 
L 151.661156 171.855593 
L 153.885122 146.118826 
L 156.109089 127.249258 
L 158.331571 116.956074 
L 160.556279 98.071279 
L 162.778761 82.620083 
L 165.001986 80.903283 
L 167.226694 77.477298 
L 169.449918 77.477298 
L 171.673142 84.314042 
L 173.897108 92.913267 
L 178.343557 116.92562 
L 180.568265 130.660017 
L 182.791489 149.552425 
L 185.016197 166.720421 
L 187.239422 187.322015 
L 191.68587 221.673233 
L 193.91132 228.532818 
L 196.133061 240.550414 
L 198.357027 250.851212 
L 200.580993 257.71841 
L 205.028925 247.417613 
L 207.252891 240.527574 
L 209.476116 231.958803 
L 211.700082 219.941207 
L 213.923306 206.20681 
L 216.14653 199.347225 
L 218.370496 183.880803 
L 220.595204 163.279208 
L 222.817687 147.828012 
L 225.040911 135.825642 
L 227.264877 130.66763 
L 229.488843 116.940847 
L 231.712068 110.081262 
L 233.936034 98.063665 
L 238.382483 108.364463 
L 240.607932 111.798062 
L 242.830415 122.076019 
L 245.054381 130.660017 
L 249.501571 144.394413 
L 251.724796 163.279208 
L 253.948762 173.580005 
L 256.172728 185.605216 
L 258.39521 192.472414 
L 260.619918 202.773211 
L 262.843143 211.357209 
L 265.070076 223.374806 
L 267.291075 228.525204 
L 269.514299 231.958803 
L 273.96149 231.958803 
L 276.184714 223.374806 
L 278.409422 213.066395 
L 280.636355 206.199197 
L 282.856612 202.780824 
L 285.079837 195.913626 
L 287.303803 178.745631 
L 289.527027 175.312032 
L 291.751735 159.860836 
L 293.974959 158.144036 
L 296.198184 139.259241 
L 298.422892 134.108843 
L 300.645374 132.392043 
L 302.86934 128.958444 
L 305.093306 127.241644 
L 309.539755 127.241644 
L 311.764463 137.527215 
L 313.987687 142.677614 
L 316.210911 151.261611 
L 320.658844 164.996008 
L 322.882068 175.296805 
L 325.106034 183.880803 
L 327.329258 187.322015 
L 329.553225 197.622812 
L 331.776449 211.357209 
L 334.000415 214.798421 
L 336.224381 213.089235 
L 338.448347 219.956433 
L 340.671572 221.673233 
L 345.118762 207.92361 
L 347.34347 197.622812 
L 349.566694 192.472414 
L 351.79066 183.888416 
L 354.013143 173.587619 
L 356.236367 168.43722 
L 358.461075 159.860836 
L 360.684299 156.427237 
L 362.909007 146.103599 
L 365.132232 140.953201 
L 367.355456 137.519602 
L 369.57868 128.943217 
L 371.803388 127.226418 
L 374.02958 130.660017 
L 376.252062 140.960814 
L 378.474545 149.544812 
L 380.700736 149.544812 
L 382.920993 151.261611 
L 385.14496 158.12881 
L 387.368926 166.712807 
L 389.59215 171.878433 
L 391.816116 178.722791 
L 394.03934 189.023588 
L 396.262565 195.890786 
L 398.487273 201.041185 
L 398.487273 201.041185 
" style="fill:none;stroke:#0000ff;stroke-linecap:square;stroke-width:1.5;"/>
    <defs>
     <path d="M 0 3 
C 0.795609 3 1.55874 2.683901 2.12132 2.12132 
C 2.683901 1.55874 3 0.795609 3 0 
C 3 -0.795609 2.683901 -1.55874 2.12132 -2.12132 
C 1.55874 -2.683901 0.795609 -3 0 -3 
C -0.795609 -3 -1.55874 -2.683901 -2.12132 -2.12132 
C -2.683901 -1.55874 -3 -0.795609 -3 0 
C -3 0.795609 -2.683901 1.55874 -2.12132 2.12132 
C -1.55874 2.683901 -0.795609 3 0 3 
z
" id="m059c3ca949" style="stroke:#0000ff;"/>
    </defs>
    <g clip-path="url(#p2f1c7f6cf9)">
     <use style="fill:#0000ff;stroke:#0000ff;" x="73.832727" xlink:href="#m059c3ca949" y="295.488"/>
     <use style="fill:#0000ff;stroke:#0000ff;" x="76.055952" xlink:href="#m059c3ca949" y="283.46279"/>
     <use style="fill:#0000ff;stroke:#0000ff;" x="78.28066" xlink:href="#m059c3ca949" y="252.575625"/>
     <use style="fill:#0000ff;stroke:#0000ff;" x="80.503884" xlink:href="#m059c3ca949" y="225.091605"/>
     <use style="fill:#0000ff;stroke:#0000ff;" x="82.72785" xlink:href="#m059c3ca949" y="197.622812"/>
     <use style="fill:#0000ff;stroke:#0000ff;" x="84.951074" xlink:href="#m059c3ca949" y="170.15402"/>
     <use style="fill:#0000ff;stroke:#0000ff;" x="87.17504" xlink:href="#m059c3ca949" y="142.67"/>
     <use style="fill:#0000ff;stroke:#0000ff;" x="89.398265" xlink:href="#m059c3ca949" y="122.068406"/>
     <use style="fill:#0000ff;stroke:#0000ff;" x="91.622231" xlink:href="#m059c3ca949" y="99.750012"/>
     <use style="fill:#0000ff;stroke:#0000ff;" x="93.846197" xlink:href="#m059c3ca949" y="84.291202"/>
     <use style="fill:#0000ff;stroke:#0000ff;" x="96.069421" xlink:href="#m059c3ca949" y="70.556806"/>
     <use style="fill:#0000ff;stroke:#0000ff;" x="98.293387" xlink:href="#m059c3ca949" y="61.980422"/>
     <use style="fill:#0000ff;stroke:#0000ff;" x="100.516612" xlink:href="#m059c3ca949" y="56.830023"/>
     <use style="fill:#0000ff;stroke:#0000ff;" x="102.739836" xlink:href="#m059c3ca949" y="61.980422"/>
     <use style="fill:#0000ff;stroke:#0000ff;" x="104.963802" xlink:href="#m059c3ca949" y="72.281219"/>
     <use style="fill:#0000ff;stroke:#0000ff;" x="107.187768" xlink:href="#m059c3ca949" y="82.566789"/>
     <use style="fill:#0000ff;stroke:#0000ff;" x="109.410993" xlink:href="#m059c3ca949" y="101.451584"/>
     <use style="fill:#0000ff;stroke:#0000ff;" x="111.635701" xlink:href="#m059c3ca949" y="122.053179"/>
     <use style="fill:#0000ff;stroke:#0000ff;" x="113.858925" xlink:href="#m059c3ca949" y="146.103599"/>
     <use style="fill:#0000ff;stroke:#0000ff;" x="116.082149" xlink:href="#m059c3ca949" y="164.988394"/>
     <use style="fill:#0000ff;stroke:#0000ff;" x="118.306115" xlink:href="#m059c3ca949" y="189.015975"/>
     <use style="fill:#0000ff;stroke:#0000ff;" x="120.531565" xlink:href="#m059c3ca949" y="213.051168"/>
     <use style="fill:#0000ff;stroke:#0000ff;" x="122.752564" xlink:href="#m059c3ca949" y="230.226777"/>
     <use style="fill:#0000ff;stroke:#0000ff;" x="124.977272" xlink:href="#m059c3ca949" y="245.677973"/>
     <use style="fill:#0000ff;stroke:#0000ff;" x="127.200496" xlink:href="#m059c3ca949" y="269.705553"/>
     <use style="fill:#0000ff;stroke:#0000ff;" x="129.42372" xlink:href="#m059c3ca949" y="278.289551"/>
     <use style="fill:#0000ff;stroke:#0000ff;" x="131.648428" xlink:href="#m059c3ca949" y="285.156749"/>
     <use style="fill:#0000ff;stroke:#0000ff;" x="133.871653" xlink:href="#m059c3ca949" y="283.447563"/>
     <use style="fill:#0000ff;stroke:#0000ff;" x="136.094877" xlink:href="#m059c3ca949" y="281.738377"/>
     <use style="fill:#0000ff;stroke:#0000ff;" x="138.319585" xlink:href="#m059c3ca949" y="273.154379"/>
     <use style="fill:#0000ff;stroke:#0000ff;" x="140.542809" xlink:href="#m059c3ca949" y="262.853582"/>
     <use style="fill:#0000ff;stroke:#0000ff;" x="142.766034" xlink:href="#m059c3ca949" y="250.835985"/>
     <use style="fill:#0000ff;stroke:#0000ff;" x="144.991483" xlink:href="#m059c3ca949" y="228.517591"/>
     <use style="fill:#0000ff;stroke:#0000ff;" x="147.213966" xlink:href="#m059c3ca949" y="213.066395"/>
     <use style="fill:#0000ff;stroke:#0000ff;" x="149.436448" xlink:href="#m059c3ca949" y="192.457187"/>
     <use style="fill:#0000ff;stroke:#0000ff;" x="151.661156" xlink:href="#m059c3ca949" y="171.855593"/>
     <use style="fill:#0000ff;stroke:#0000ff;" x="153.885122" xlink:href="#m059c3ca949" y="146.118826"/>
     <use style="fill:#0000ff;stroke:#0000ff;" x="156.109089" xlink:href="#m059c3ca949" y="127.249258"/>
     <use style="fill:#0000ff;stroke:#0000ff;" x="158.331571" xlink:href="#m059c3ca949" y="116.956074"/>
     <use style="fill:#0000ff;stroke:#0000ff;" x="160.556279" xlink:href="#m059c3ca949" y="98.071279"/>
     <use style="fill:#0000ff;stroke:#0000ff;" x="162.778761" xlink:href="#m059c3ca949" y="82.620083"/>
     <use style="fill:#0000ff;stroke:#0000ff;" x="165.001986" xlink:href="#m059c3ca949" y="80.903283"/>
     <use style="fill:#0000ff;stroke:#0000ff;" x="167.226694" xlink:href="#m059c3ca949" y="77.477298"/>
     <use style="fill:#0000ff;stroke:#0000ff;" x="169.449918" xlink:href="#m059c3ca949" y="77.477298"/>
     <use style="fill:#0000ff;stroke:#0000ff;" x="171.673142" xlink:href="#m059c3ca949" y="84.314042"/>
     <use style="fill:#0000ff;stroke:#0000ff;" x="173.897108" xlink:href="#m059c3ca949" y="92.913267"/>
     <use style="fill:#0000ff;stroke:#0000ff;" x="176.121075" xlink:href="#m059c3ca949" y="104.94609"/>
     <use style="fill:#0000ff;stroke:#0000ff;" x="178.343557" xlink:href="#m059c3ca949" y="116.92562"/>
     <use style="fill:#0000ff;stroke:#0000ff;" x="180.568265" xlink:href="#m059c3ca949" y="130.660017"/>
     <use style="fill:#0000ff;stroke:#0000ff;" x="182.791489" xlink:href="#m059c3ca949" y="149.552425"/>
     <use style="fill:#0000ff;stroke:#0000ff;" x="185.016197" xlink:href="#m059c3ca949" y="166.720421"/>
     <use style="fill:#0000ff;stroke:#0000ff;" x="187.239422" xlink:href="#m059c3ca949" y="187.322015"/>
     <use style="fill:#0000ff;stroke:#0000ff;" x="189.462646" xlink:href="#m059c3ca949" y="204.497624"/>
     <use style="fill:#0000ff;stroke:#0000ff;" x="191.68587" xlink:href="#m059c3ca949" y="221.673233"/>
     <use style="fill:#0000ff;stroke:#0000ff;" x="193.91132" xlink:href="#m059c3ca949" y="228.532818"/>
     <use style="fill:#0000ff;stroke:#0000ff;" x="196.133061" xlink:href="#m059c3ca949" y="240.550414"/>
     <use style="fill:#0000ff;stroke:#0000ff;" x="198.357027" xlink:href="#m059c3ca949" y="250.851212"/>
     <use style="fill:#0000ff;stroke:#0000ff;" x="200.580993" xlink:href="#m059c3ca949" y="257.71841"/>
     <use style="fill:#0000ff;stroke:#0000ff;" x="202.804959" xlink:href="#m059c3ca949" y="252.568011"/>
     <use style="fill:#0000ff;stroke:#0000ff;" x="205.028925" xlink:href="#m059c3ca949" y="247.417613"/>
     <use style="fill:#0000ff;stroke:#0000ff;" x="207.252891" xlink:href="#m059c3ca949" y="240.527574"/>
     <use style="fill:#0000ff;stroke:#0000ff;" x="209.476116" xlink:href="#m059c3ca949" y="231.958803"/>
     <use style="fill:#0000ff;stroke:#0000ff;" x="211.700082" xlink:href="#m059c3ca949" y="219.941207"/>
     <use style="fill:#0000ff;stroke:#0000ff;" x="213.923306" xlink:href="#m059c3ca949" y="206.20681"/>
     <use style="fill:#0000ff;stroke:#0000ff;" x="216.14653" xlink:href="#m059c3ca949" y="199.347225"/>
     <use style="fill:#0000ff;stroke:#0000ff;" x="218.370496" xlink:href="#m059c3ca949" y="183.880803"/>
     <use style="fill:#0000ff;stroke:#0000ff;" x="220.595204" xlink:href="#m059c3ca949" y="163.279208"/>
     <use style="fill:#0000ff;stroke:#0000ff;" x="222.817687" xlink:href="#m059c3ca949" y="147.828012"/>
     <use style="fill:#0000ff;stroke:#0000ff;" x="225.040911" xlink:href="#m059c3ca949" y="135.825642"/>
     <use style="fill:#0000ff;stroke:#0000ff;" x="227.264877" xlink:href="#m059c3ca949" y="130.66763"/>
     <use style="fill:#0000ff;stroke:#0000ff;" x="229.488843" xlink:href="#m059c3ca949" y="116.940847"/>
     <use style="fill:#0000ff;stroke:#0000ff;" x="231.712068" xlink:href="#m059c3ca949" y="110.081262"/>
     <use style="fill:#0000ff;stroke:#0000ff;" x="233.936034" xlink:href="#m059c3ca949" y="98.063665"/>
     <use style="fill:#0000ff;stroke:#0000ff;" x="236.16" xlink:href="#m059c3ca949" y="103.214064"/>
     <use style="fill:#0000ff;stroke:#0000ff;" x="238.382483" xlink:href="#m059c3ca949" y="108.364463"/>
     <use style="fill:#0000ff;stroke:#0000ff;" x="240.607932" xlink:href="#m059c3ca949" y="111.798062"/>
     <use style="fill:#0000ff;stroke:#0000ff;" x="242.830415" xlink:href="#m059c3ca949" y="122.076019"/>
     <use style="fill:#0000ff;stroke:#0000ff;" x="245.054381" xlink:href="#m059c3ca949" y="130.660017"/>
     <use style="fill:#0000ff;stroke:#0000ff;" x="247.278347" xlink:href="#m059c3ca949" y="137.542442"/>
     <use style="fill:#0000ff;stroke:#0000ff;" x="249.501571" xlink:href="#m059c3ca949" y="144.394413"/>
     <use style="fill:#0000ff;stroke:#0000ff;" x="251.724796" xlink:href="#m059c3ca949" y="163.279208"/>
     <use style="fill:#0000ff;stroke:#0000ff;" x="253.948762" xlink:href="#m059c3ca949" y="173.580005"/>
     <use style="fill:#0000ff;stroke:#0000ff;" x="256.172728" xlink:href="#m059c3ca949" y="185.605216"/>
     <use style="fill:#0000ff;stroke:#0000ff;" x="258.39521" xlink:href="#m059c3ca949" y="192.472414"/>
     <use style="fill:#0000ff;stroke:#0000ff;" x="260.619918" xlink:href="#m059c3ca949" y="202.773211"/>
     <use style="fill:#0000ff;stroke:#0000ff;" x="262.843143" xlink:href="#m059c3ca949" y="211.357209"/>
     <use style="fill:#0000ff;stroke:#0000ff;" x="265.070076" xlink:href="#m059c3ca949" y="223.374806"/>
     <use style="fill:#0000ff;stroke:#0000ff;" x="267.291075" xlink:href="#m059c3ca949" y="228.525204"/>
     <use style="fill:#0000ff;stroke:#0000ff;" x="269.514299" xlink:href="#m059c3ca949" y="231.958803"/>
     <use style="fill:#0000ff;stroke:#0000ff;" x="271.742716" xlink:href="#m059c3ca949" y="231.958803"/>
     <use style="fill:#0000ff;stroke:#0000ff;" x="273.96149" xlink:href="#m059c3ca949" y="231.958803"/>
     <use style="fill:#0000ff;stroke:#0000ff;" x="276.184714" xlink:href="#m059c3ca949" y="223.374806"/>
     <use style="fill:#0000ff;stroke:#0000ff;" x="278.409422" xlink:href="#m059c3ca949" y="213.066395"/>
     <use style="fill:#0000ff;stroke:#0000ff;" x="280.636355" xlink:href="#m059c3ca949" y="206.199197"/>
     <use style="fill:#0000ff;stroke:#0000ff;" x="282.856612" xlink:href="#m059c3ca949" y="202.780824"/>
     <use style="fill:#0000ff;stroke:#0000ff;" x="285.079837" xlink:href="#m059c3ca949" y="195.913626"/>
     <use style="fill:#0000ff;stroke:#0000ff;" x="287.303803" xlink:href="#m059c3ca949" y="178.745631"/>
     <use style="fill:#0000ff;stroke:#0000ff;" x="289.527027" xlink:href="#m059c3ca949" y="175.312032"/>
     <use style="fill:#0000ff;stroke:#0000ff;" x="291.751735" xlink:href="#m059c3ca949" y="159.860836"/>
     <use style="fill:#0000ff;stroke:#0000ff;" x="293.974959" xlink:href="#m059c3ca949" y="158.144036"/>
     <use style="fill:#0000ff;stroke:#0000ff;" x="296.198184" xlink:href="#m059c3ca949" y="139.259241"/>
     <use style="fill:#0000ff;stroke:#0000ff;" x="298.422892" xlink:href="#m059c3ca949" y="134.108843"/>
     <use style="fill:#0000ff;stroke:#0000ff;" x="300.645374" xlink:href="#m059c3ca949" y="132.392043"/>
     <use style="fill:#0000ff;stroke:#0000ff;" x="302.86934" xlink:href="#m059c3ca949" y="128.958444"/>
     <use style="fill:#0000ff;stroke:#0000ff;" x="305.093306" xlink:href="#m059c3ca949" y="127.241644"/>
     <use style="fill:#0000ff;stroke:#0000ff;" x="307.316531" xlink:href="#m059c3ca949" y="127.241644"/>
     <use style="fill:#0000ff;stroke:#0000ff;" x="309.539755" xlink:href="#m059c3ca949" y="127.241644"/>
     <use style="fill:#0000ff;stroke:#0000ff;" x="311.764463" xlink:href="#m059c3ca949" y="137.527215"/>
     <use style="fill:#0000ff;stroke:#0000ff;" x="313.987687" xlink:href="#m059c3ca949" y="142.677614"/>
     <use style="fill:#0000ff;stroke:#0000ff;" x="316.210911" xlink:href="#m059c3ca949" y="151.261611"/>
     <use style="fill:#0000ff;stroke:#0000ff;" x="318.434878" xlink:href="#m059c3ca949" y="158.12881"/>
     <use style="fill:#0000ff;stroke:#0000ff;" x="320.658844" xlink:href="#m059c3ca949" y="164.996008"/>
     <use style="fill:#0000ff;stroke:#0000ff;" x="322.882068" xlink:href="#m059c3ca949" y="175.296805"/>
     <use style="fill:#0000ff;stroke:#0000ff;" x="325.106034" xlink:href="#m059c3ca949" y="183.880803"/>
     <use style="fill:#0000ff;stroke:#0000ff;" x="327.329258" xlink:href="#m059c3ca949" y="187.322015"/>
     <use style="fill:#0000ff;stroke:#0000ff;" x="329.553225" xlink:href="#m059c3ca949" y="197.622812"/>
     <use style="fill:#0000ff;stroke:#0000ff;" x="331.776449" xlink:href="#m059c3ca949" y="211.357209"/>
     <use style="fill:#0000ff;stroke:#0000ff;" x="334.000415" xlink:href="#m059c3ca949" y="214.798421"/>
     <use style="fill:#0000ff;stroke:#0000ff;" x="336.224381" xlink:href="#m059c3ca949" y="213.089235"/>
     <use style="fill:#0000ff;stroke:#0000ff;" x="338.448347" xlink:href="#m059c3ca949" y="219.956433"/>
     <use style="fill:#0000ff;stroke:#0000ff;" x="340.671572" xlink:href="#m059c3ca949" y="221.673233"/>
     <use style="fill:#0000ff;stroke:#0000ff;" x="342.895538" xlink:href="#m059c3ca949" y="214.798421"/>
     <use style="fill:#0000ff;stroke:#0000ff;" x="345.118762" xlink:href="#m059c3ca949" y="207.92361"/>
     <use style="fill:#0000ff;stroke:#0000ff;" x="347.34347" xlink:href="#m059c3ca949" y="197.622812"/>
     <use style="fill:#0000ff;stroke:#0000ff;" x="349.566694" xlink:href="#m059c3ca949" y="192.472414"/>
     <use style="fill:#0000ff;stroke:#0000ff;" x="351.79066" xlink:href="#m059c3ca949" y="183.888416"/>
     <use style="fill:#0000ff;stroke:#0000ff;" x="354.013143" xlink:href="#m059c3ca949" y="173.587619"/>
     <use style="fill:#0000ff;stroke:#0000ff;" x="356.236367" xlink:href="#m059c3ca949" y="168.43722"/>
     <use style="fill:#0000ff;stroke:#0000ff;" x="358.461075" xlink:href="#m059c3ca949" y="159.860836"/>
     <use style="fill:#0000ff;stroke:#0000ff;" x="360.684299" xlink:href="#m059c3ca949" y="156.427237"/>
     <use style="fill:#0000ff;stroke:#0000ff;" x="362.909007" xlink:href="#m059c3ca949" y="146.103599"/>
     <use style="fill:#0000ff;stroke:#0000ff;" x="365.132232" xlink:href="#m059c3ca949" y="140.953201"/>
     <use style="fill:#0000ff;stroke:#0000ff;" x="367.355456" xlink:href="#m059c3ca949" y="137.519602"/>
     <use style="fill:#0000ff;stroke:#0000ff;" x="369.57868" xlink:href="#m059c3ca949" y="128.943217"/>
     <use style="fill:#0000ff;stroke:#0000ff;" x="371.803388" xlink:href="#m059c3ca949" y="127.226418"/>
     <use style="fill:#0000ff;stroke:#0000ff;" x="374.02958" xlink:href="#m059c3ca949" y="130.660017"/>
     <use style="fill:#0000ff;stroke:#0000ff;" x="376.252062" xlink:href="#m059c3ca949" y="140.960814"/>
     <use style="fill:#0000ff;stroke:#0000ff;" x="378.474545" xlink:href="#m059c3ca949" y="149.544812"/>
     <use style="fill:#0000ff;stroke:#0000ff;" x="380.700736" xlink:href="#m059c3ca949" y="149.544812"/>
     <use style="fill:#0000ff;stroke:#0000ff;" x="382.920993" xlink:href="#m059c3ca949" y="151.261611"/>
     <use style="fill:#0000ff;stroke:#0000ff;" x="385.14496" xlink:href="#m059c3ca949" y="158.12881"/>
     <use style="fill:#0000ff;stroke:#0000ff;" x="387.368926" xlink:href="#m059c3ca949" y="166.712807"/>
     <use style="fill:#0000ff;stroke:#0000ff;" x="389.59215" xlink:href="#m059c3ca949" y="171.878433"/>
     <use style="fill:#0000ff;stroke:#0000ff;" x="391.816116" xlink:href="#m059c3ca949" y="178.722791"/>
     <use style="fill:#0000ff;stroke:#0000ff;" x="394.03934" xlink:href="#m059c3ca949" y="189.023588"/>
     <use style="fill:#0000ff;stroke:#0000ff;" x="396.262565" xlink:href="#m059c3ca949" y="195.890786"/>
     <use style="fill:#0000ff;stroke:#0000ff;" x="398.487273" xlink:href="#m059c3ca949" y="201.041185"/>
    </g>
   </g>
   <g id="line2d_15">
    <path clip-path="url(#p2f1c7f6cf9)" d="M 73.832727 177.189081 
L 76.055952 178.905935 
L 78.28066 178.905935 
L 80.503884 175.472227 
L 82.72785 170.321666 
L 84.951074 160.005317 
L 87.17504 156.579223 
L 89.398265 149.734649 
L 91.622231 141.127539 
L 96.069421 127.39271 
L 98.293387 118.816055 
L 100.516612 115.382347 
L 102.739836 108.514932 
L 107.187768 98.21381 
L 113.858925 98.21381 
L 116.082149 101.647517 
L 118.306115 108.53016 
L 120.531565 117.114428 
L 122.752564 129.12479 
L 124.977272 135.984592 
L 127.200496 144.56886 
L 129.42372 160.005317 
L 131.648428 172.053747 
L 136.094877 192.625537 
L 140.542809 202.9495 
L 142.766034 209.816915 
L 144.991483 211.533769 
L 147.213966 206.383207 
L 149.436448 202.934273 
L 153.885122 185.773349 
L 156.109089 172.03852 
L 162.778761 135.984592 
L 165.001986 117.099201 
L 169.449918 89.629542 
L 171.673142 79.328419 
L 173.897108 70.736537 
L 176.121075 65.585976 
L 178.343557 72.453391 
L 180.568265 72.453391 
L 182.791489 79.320806 
L 185.016197 89.629542 
L 187.239422 98.206196 
L 189.462646 110.216559 
L 191.68587 127.39271 
L 193.91132 135.984592 
L 196.133061 154.869983 
L 198.357027 166.887959 
L 200.580993 185.765736 
L 202.804959 197.783712 
L 205.028925 208.084834 
L 207.252891 214.952249 
L 209.476116 214.952249 
L 211.700082 211.526155 
L 213.923306 211.526155 
L 218.370496 194.357618 
L 220.595204 190.923911 
L 222.817687 177.181467 
L 225.040911 159.997703 
L 227.264877 146.262873 
L 229.488843 134.282965 
L 231.712068 117.106814 
L 233.936034 106.805692 
L 240.607932 70.759378 
L 242.830415 77.611566 
L 245.054381 77.611566 
L 247.278347 86.180607 
L 249.501571 87.897461 
L 251.724796 96.496956 
L 253.948762 103.364371 
L 258.39521 134.252511 
L 260.619918 142.836779 
L 262.843143 153.137902 
L 265.070076 165.171105 
L 267.291075 173.74776 
L 269.514299 184.048882 
L 271.742716 196.066858 
L 273.96149 199.508179 
L 278.409422 199.500565 
L 280.636355 197.791325 
L 282.856612 192.640764 
L 289.527027 166.880345 
L 291.751735 154.862369 
L 293.974959 146.262873 
L 296.198184 139.395458 
L 300.645374 129.109563 
L 302.86934 118.808441 
L 305.093306 113.688334 
L 309.539755 113.665493 
L 311.764463 110.216559 
L 313.987687 113.650266 
L 316.210911 118.800827 
L 318.434878 127.385096 
L 320.658844 129.10195 
L 322.882068 134.252511 
L 325.106034 144.56886 
L 327.329258 144.56886 
L 329.553225 153.153129 
L 331.776449 156.59445 
L 334.000415 156.602063 
L 336.224381 158.30369 
L 338.448347 158.30369 
L 340.671572 160.020544 
L 342.895538 163.454251 
L 345.118762 160.020544 
L 347.34347 160.020544 
L 349.566694 154.869983 
L 354.013143 154.869983 
L 356.236367 153.153129 
L 365.132232 153.153129 
L 367.355456 146.262873 
L 376.252062 146.293328 
L 380.700736 146.293328 
L 382.920993 144.576474 
L 385.14496 137.709059 
L 387.368926 134.282965 
L 389.59215 125.675856 
L 394.03934 125.683469 
L 396.262565 115.382347 
L 398.487273 117.106814 
L 398.487273 117.106814 
" style="fill:none;stroke:#ff0000;stroke-linecap:square;stroke-width:1.5;"/>
    <defs>
     <path d="M 0 3 
C 0.795609 3 1.55874 2.683901 2.12132 2.12132 
C 2.683901 1.55874 3 0.795609 3 0 
C 3 -0.795609 2.683901 -1.55874 2.12132 -2.12132 
C 1.55874 -2.683901 0.795609 -3 0 -3 
C -0.795609 -3 -1.55874 -2.683901 -2.12132 -2.12132 
C -2.683901 -1.55874 -3 -0.795609 -3 0 
C -3 0.795609 -2.683901 1.55874 -2.12132 2.12132 
C -1.55874 2.683901 -0.795609 3 0 3 
z
" id="m194d7af007" style="stroke:#ff0000;"/>
    </defs>
    <g clip-path="url(#p2f1c7f6cf9)">
     <use style="fill:#ff0000;stroke:#ff0000;" x="73.832727" xlink:href="#m194d7af007" y="177.189081"/>
     <use style="fill:#ff0000;stroke:#ff0000;" x="76.055952" xlink:href="#m194d7af007" y="178.905935"/>
     <use style="fill:#ff0000;stroke:#ff0000;" x="78.28066" xlink:href="#m194d7af007" y="178.905935"/>
     <use style="fill:#ff0000;stroke:#ff0000;" x="80.503884" xlink:href="#m194d7af007" y="175.472227"/>
     <use style="fill:#ff0000;stroke:#ff0000;" x="82.72785" xlink:href="#m194d7af007" y="170.321666"/>
     <use style="fill:#ff0000;stroke:#ff0000;" x="84.951074" xlink:href="#m194d7af007" y="160.005317"/>
     <use style="fill:#ff0000;stroke:#ff0000;" x="87.17504" xlink:href="#m194d7af007" y="156.579223"/>
     <use style="fill:#ff0000;stroke:#ff0000;" x="89.398265" xlink:href="#m194d7af007" y="149.734649"/>
     <use style="fill:#ff0000;stroke:#ff0000;" x="91.622231" xlink:href="#m194d7af007" y="141.127539"/>
     <use style="fill:#ff0000;stroke:#ff0000;" x="93.846197" xlink:href="#m194d7af007" y="134.260124"/>
     <use style="fill:#ff0000;stroke:#ff0000;" x="96.069421" xlink:href="#m194d7af007" y="127.39271"/>
     <use style="fill:#ff0000;stroke:#ff0000;" x="98.293387" xlink:href="#m194d7af007" y="118.816055"/>
     <use style="fill:#ff0000;stroke:#ff0000;" x="100.516612" xlink:href="#m194d7af007" y="115.382347"/>
     <use style="fill:#ff0000;stroke:#ff0000;" x="102.739836" xlink:href="#m194d7af007" y="108.514932"/>
     <use style="fill:#ff0000;stroke:#ff0000;" x="104.963802" xlink:href="#m194d7af007" y="103.364371"/>
     <use style="fill:#ff0000;stroke:#ff0000;" x="107.187768" xlink:href="#m194d7af007" y="98.21381"/>
     <use style="fill:#ff0000;stroke:#ff0000;" x="109.410993" xlink:href="#m194d7af007" y="98.21381"/>
     <use style="fill:#ff0000;stroke:#ff0000;" x="111.635701" xlink:href="#m194d7af007" y="98.21381"/>
     <use style="fill:#ff0000;stroke:#ff0000;" x="113.858925" xlink:href="#m194d7af007" y="98.21381"/>
     <use style="fill:#ff0000;stroke:#ff0000;" x="116.082149" xlink:href="#m194d7af007" y="101.647517"/>
     <use style="fill:#ff0000;stroke:#ff0000;" x="118.306115" xlink:href="#m194d7af007" y="108.53016"/>
     <use style="fill:#ff0000;stroke:#ff0000;" x="120.531565" xlink:href="#m194d7af007" y="117.114428"/>
     <use style="fill:#ff0000;stroke:#ff0000;" x="122.752564" xlink:href="#m194d7af007" y="129.12479"/>
     <use style="fill:#ff0000;stroke:#ff0000;" x="124.977272" xlink:href="#m194d7af007" y="135.984592"/>
     <use style="fill:#ff0000;stroke:#ff0000;" x="127.200496" xlink:href="#m194d7af007" y="144.56886"/>
     <use style="fill:#ff0000;stroke:#ff0000;" x="129.42372" xlink:href="#m194d7af007" y="160.005317"/>
     <use style="fill:#ff0000;stroke:#ff0000;" x="131.648428" xlink:href="#m194d7af007" y="172.053747"/>
     <use style="fill:#ff0000;stroke:#ff0000;" x="133.871653" xlink:href="#m194d7af007" y="182.339642"/>
     <use style="fill:#ff0000;stroke:#ff0000;" x="136.094877" xlink:href="#m194d7af007" y="192.625537"/>
     <use style="fill:#ff0000;stroke:#ff0000;" x="138.319585" xlink:href="#m194d7af007" y="197.791325"/>
     <use style="fill:#ff0000;stroke:#ff0000;" x="140.542809" xlink:href="#m194d7af007" y="202.9495"/>
     <use style="fill:#ff0000;stroke:#ff0000;" x="142.766034" xlink:href="#m194d7af007" y="209.816915"/>
     <use style="fill:#ff0000;stroke:#ff0000;" x="144.991483" xlink:href="#m194d7af007" y="211.533769"/>
     <use style="fill:#ff0000;stroke:#ff0000;" x="147.213966" xlink:href="#m194d7af007" y="206.383207"/>
     <use style="fill:#ff0000;stroke:#ff0000;" x="149.436448" xlink:href="#m194d7af007" y="202.934273"/>
     <use style="fill:#ff0000;stroke:#ff0000;" x="151.661156" xlink:href="#m194d7af007" y="194.357618"/>
     <use style="fill:#ff0000;stroke:#ff0000;" x="153.885122" xlink:href="#m194d7af007" y="185.773349"/>
     <use style="fill:#ff0000;stroke:#ff0000;" x="156.109089" xlink:href="#m194d7af007" y="172.03852"/>
     <use style="fill:#ff0000;stroke:#ff0000;" x="158.331571" xlink:href="#m194d7af007" y="160.01293"/>
     <use style="fill:#ff0000;stroke:#ff0000;" x="160.556279" xlink:href="#m194d7af007" y="148.002568"/>
     <use style="fill:#ff0000;stroke:#ff0000;" x="162.778761" xlink:href="#m194d7af007" y="135.984592"/>
     <use style="fill:#ff0000;stroke:#ff0000;" x="165.001986" xlink:href="#m194d7af007" y="117.099201"/>
     <use style="fill:#ff0000;stroke:#ff0000;" x="167.226694" xlink:href="#m194d7af007" y="103.364371"/>
     <use style="fill:#ff0000;stroke:#ff0000;" x="169.449918" xlink:href="#m194d7af007" y="89.629542"/>
     <use style="fill:#ff0000;stroke:#ff0000;" x="171.673142" xlink:href="#m194d7af007" y="79.328419"/>
     <use style="fill:#ff0000;stroke:#ff0000;" x="173.897108" xlink:href="#m194d7af007" y="70.736537"/>
     <use style="fill:#ff0000;stroke:#ff0000;" x="176.121075" xlink:href="#m194d7af007" y="65.585976"/>
     <use style="fill:#ff0000;stroke:#ff0000;" x="178.343557" xlink:href="#m194d7af007" y="72.453391"/>
     <use style="fill:#ff0000;stroke:#ff0000;" x="180.568265" xlink:href="#m194d7af007" y="72.453391"/>
     <use style="fill:#ff0000;stroke:#ff0000;" x="182.791489" xlink:href="#m194d7af007" y="79.320806"/>
     <use style="fill:#ff0000;stroke:#ff0000;" x="185.016197" xlink:href="#m194d7af007" y="89.629542"/>
     <use style="fill:#ff0000;stroke:#ff0000;" x="187.239422" xlink:href="#m194d7af007" y="98.206196"/>
     <use style="fill:#ff0000;stroke:#ff0000;" x="189.462646" xlink:href="#m194d7af007" y="110.216559"/>
     <use style="fill:#ff0000;stroke:#ff0000;" x="191.68587" xlink:href="#m194d7af007" y="127.39271"/>
     <use style="fill:#ff0000;stroke:#ff0000;" x="193.91132" xlink:href="#m194d7af007" y="135.984592"/>
     <use style="fill:#ff0000;stroke:#ff0000;" x="196.133061" xlink:href="#m194d7af007" y="154.869983"/>
     <use style="fill:#ff0000;stroke:#ff0000;" x="198.357027" xlink:href="#m194d7af007" y="166.887959"/>
     <use style="fill:#ff0000;stroke:#ff0000;" x="200.580993" xlink:href="#m194d7af007" y="185.765736"/>
     <use style="fill:#ff0000;stroke:#ff0000;" x="202.804959" xlink:href="#m194d7af007" y="197.783712"/>
     <use style="fill:#ff0000;stroke:#ff0000;" x="205.028925" xlink:href="#m194d7af007" y="208.084834"/>
     <use style="fill:#ff0000;stroke:#ff0000;" x="207.252891" xlink:href="#m194d7af007" y="214.952249"/>
     <use style="fill:#ff0000;stroke:#ff0000;" x="209.476116" xlink:href="#m194d7af007" y="214.952249"/>
     <use style="fill:#ff0000;stroke:#ff0000;" x="211.700082" xlink:href="#m194d7af007" y="211.526155"/>
     <use style="fill:#ff0000;stroke:#ff0000;" x="213.923306" xlink:href="#m194d7af007" y="211.526155"/>
     <use style="fill:#ff0000;stroke:#ff0000;" x="216.14653" xlink:href="#m194d7af007" y="202.941886"/>
     <use style="fill:#ff0000;stroke:#ff0000;" x="218.370496" xlink:href="#m194d7af007" y="194.357618"/>
     <use style="fill:#ff0000;stroke:#ff0000;" x="220.595204" xlink:href="#m194d7af007" y="190.923911"/>
     <use style="fill:#ff0000;stroke:#ff0000;" x="222.817687" xlink:href="#m194d7af007" y="177.181467"/>
     <use style="fill:#ff0000;stroke:#ff0000;" x="225.040911" xlink:href="#m194d7af007" y="159.997703"/>
     <use style="fill:#ff0000;stroke:#ff0000;" x="227.264877" xlink:href="#m194d7af007" y="146.262873"/>
     <use style="fill:#ff0000;stroke:#ff0000;" x="229.488843" xlink:href="#m194d7af007" y="134.282965"/>
     <use style="fill:#ff0000;stroke:#ff0000;" x="231.712068" xlink:href="#m194d7af007" y="117.106814"/>
     <use style="fill:#ff0000;stroke:#ff0000;" x="233.936034" xlink:href="#m194d7af007" y="106.805692"/>
     <use style="fill:#ff0000;stroke:#ff0000;" x="236.16" xlink:href="#m194d7af007" y="94.787716"/>
     <use style="fill:#ff0000;stroke:#ff0000;" x="238.382483" xlink:href="#m194d7af007" y="82.762127"/>
     <use style="fill:#ff0000;stroke:#ff0000;" x="240.607932" xlink:href="#m194d7af007" y="70.759378"/>
     <use style="fill:#ff0000;stroke:#ff0000;" x="242.830415" xlink:href="#m194d7af007" y="77.611566"/>
     <use style="fill:#ff0000;stroke:#ff0000;" x="245.054381" xlink:href="#m194d7af007" y="77.611566"/>
     <use style="fill:#ff0000;stroke:#ff0000;" x="247.278347" xlink:href="#m194d7af007" y="86.180607"/>
     <use style="fill:#ff0000;stroke:#ff0000;" x="249.501571" xlink:href="#m194d7af007" y="87.897461"/>
     <use style="fill:#ff0000;stroke:#ff0000;" x="251.724796" xlink:href="#m194d7af007" y="96.496956"/>
     <use style="fill:#ff0000;stroke:#ff0000;" x="253.948762" xlink:href="#m194d7af007" y="103.364371"/>
     <use style="fill:#ff0000;stroke:#ff0000;" x="256.172728" xlink:href="#m194d7af007" y="118.800827"/>
     <use style="fill:#ff0000;stroke:#ff0000;" x="258.39521" xlink:href="#m194d7af007" y="134.252511"/>
     <use style="fill:#ff0000;stroke:#ff0000;" x="260.619918" xlink:href="#m194d7af007" y="142.836779"/>
     <use style="fill:#ff0000;stroke:#ff0000;" x="262.843143" xlink:href="#m194d7af007" y="153.137902"/>
     <use style="fill:#ff0000;stroke:#ff0000;" x="265.070076" xlink:href="#m194d7af007" y="165.171105"/>
     <use style="fill:#ff0000;stroke:#ff0000;" x="267.291075" xlink:href="#m194d7af007" y="173.74776"/>
     <use style="fill:#ff0000;stroke:#ff0000;" x="269.514299" xlink:href="#m194d7af007" y="184.048882"/>
     <use style="fill:#ff0000;stroke:#ff0000;" x="271.742716" xlink:href="#m194d7af007" y="196.066858"/>
     <use style="fill:#ff0000;stroke:#ff0000;" x="273.96149" xlink:href="#m194d7af007" y="199.508179"/>
     <use style="fill:#ff0000;stroke:#ff0000;" x="276.184714" xlink:href="#m194d7af007" y="199.500565"/>
     <use style="fill:#ff0000;stroke:#ff0000;" x="278.409422" xlink:href="#m194d7af007" y="199.500565"/>
     <use style="fill:#ff0000;stroke:#ff0000;" x="280.636355" xlink:href="#m194d7af007" y="197.791325"/>
     <use style="fill:#ff0000;stroke:#ff0000;" x="282.856612" xlink:href="#m194d7af007" y="192.640764"/>
     <use style="fill:#ff0000;stroke:#ff0000;" x="285.079837" xlink:href="#m194d7af007" y="184.048882"/>
     <use style="fill:#ff0000;stroke:#ff0000;" x="287.303803" xlink:href="#m194d7af007" y="175.464614"/>
     <use style="fill:#ff0000;stroke:#ff0000;" x="289.527027" xlink:href="#m194d7af007" y="166.880345"/>
     <use style="fill:#ff0000;stroke:#ff0000;" x="291.751735" xlink:href="#m194d7af007" y="154.862369"/>
     <use style="fill:#ff0000;stroke:#ff0000;" x="293.974959" xlink:href="#m194d7af007" y="146.262873"/>
     <use style="fill:#ff0000;stroke:#ff0000;" x="296.198184" xlink:href="#m194d7af007" y="139.395458"/>
     <use style="fill:#ff0000;stroke:#ff0000;" x="298.422892" xlink:href="#m194d7af007" y="134.260124"/>
     <use style="fill:#ff0000;stroke:#ff0000;" x="300.645374" xlink:href="#m194d7af007" y="129.109563"/>
     <use style="fill:#ff0000;stroke:#ff0000;" x="302.86934" xlink:href="#m194d7af007" y="118.808441"/>
     <use style="fill:#ff0000;stroke:#ff0000;" x="305.093306" xlink:href="#m194d7af007" y="113.688334"/>
     <use style="fill:#ff0000;stroke:#ff0000;" x="307.316531" xlink:href="#m194d7af007" y="113.688334"/>
     <use style="fill:#ff0000;stroke:#ff0000;" x="309.539755" xlink:href="#m194d7af007" y="113.665493"/>
     <use style="fill:#ff0000;stroke:#ff0000;" x="311.764463" xlink:href="#m194d7af007" y="110.216559"/>
     <use style="fill:#ff0000;stroke:#ff0000;" x="313.987687" xlink:href="#m194d7af007" y="113.650266"/>
     <use style="fill:#ff0000;stroke:#ff0000;" x="316.210911" xlink:href="#m194d7af007" y="118.800827"/>
     <use style="fill:#ff0000;stroke:#ff0000;" x="318.434878" xlink:href="#m194d7af007" y="127.385096"/>
     <use style="fill:#ff0000;stroke:#ff0000;" x="320.658844" xlink:href="#m194d7af007" y="129.10195"/>
     <use style="fill:#ff0000;stroke:#ff0000;" x="322.882068" xlink:href="#m194d7af007" y="134.252511"/>
     <use style="fill:#ff0000;stroke:#ff0000;" x="325.106034" xlink:href="#m194d7af007" y="144.56886"/>
     <use style="fill:#ff0000;stroke:#ff0000;" x="327.329258" xlink:href="#m194d7af007" y="144.56886"/>
     <use style="fill:#ff0000;stroke:#ff0000;" x="329.553225" xlink:href="#m194d7af007" y="153.153129"/>
     <use style="fill:#ff0000;stroke:#ff0000;" x="331.776449" xlink:href="#m194d7af007" y="156.59445"/>
     <use style="fill:#ff0000;stroke:#ff0000;" x="334.000415" xlink:href="#m194d7af007" y="156.602063"/>
     <use style="fill:#ff0000;stroke:#ff0000;" x="336.224381" xlink:href="#m194d7af007" y="158.30369"/>
     <use style="fill:#ff0000;stroke:#ff0000;" x="338.448347" xlink:href="#m194d7af007" y="158.30369"/>
     <use style="fill:#ff0000;stroke:#ff0000;" x="340.671572" xlink:href="#m194d7af007" y="160.020544"/>
     <use style="fill:#ff0000;stroke:#ff0000;" x="342.895538" xlink:href="#m194d7af007" y="163.454251"/>
     <use style="fill:#ff0000;stroke:#ff0000;" x="345.118762" xlink:href="#m194d7af007" y="160.020544"/>
     <use style="fill:#ff0000;stroke:#ff0000;" x="347.34347" xlink:href="#m194d7af007" y="160.020544"/>
     <use style="fill:#ff0000;stroke:#ff0000;" x="349.566694" xlink:href="#m194d7af007" y="154.869983"/>
     <use style="fill:#ff0000;stroke:#ff0000;" x="351.79066" xlink:href="#m194d7af007" y="154.869983"/>
     <use style="fill:#ff0000;stroke:#ff0000;" x="354.013143" xlink:href="#m194d7af007" y="154.869983"/>
     <use style="fill:#ff0000;stroke:#ff0000;" x="356.236367" xlink:href="#m194d7af007" y="153.153129"/>
     <use style="fill:#ff0000;stroke:#ff0000;" x="358.461075" xlink:href="#m194d7af007" y="153.153129"/>
     <use style="fill:#ff0000;stroke:#ff0000;" x="360.684299" xlink:href="#m194d7af007" y="153.153129"/>
     <use style="fill:#ff0000;stroke:#ff0000;" x="362.909007" xlink:href="#m194d7af007" y="153.153129"/>
     <use style="fill:#ff0000;stroke:#ff0000;" x="365.132232" xlink:href="#m194d7af007" y="153.153129"/>
     <use style="fill:#ff0000;stroke:#ff0000;" x="367.355456" xlink:href="#m194d7af007" y="146.262873"/>
     <use style="fill:#ff0000;stroke:#ff0000;" x="369.57868" xlink:href="#m194d7af007" y="146.293328"/>
     <use style="fill:#ff0000;stroke:#ff0000;" x="371.803388" xlink:href="#m194d7af007" y="146.293328"/>
     <use style="fill:#ff0000;stroke:#ff0000;" x="374.02958" xlink:href="#m194d7af007" y="146.293328"/>
     <use style="fill:#ff0000;stroke:#ff0000;" x="376.252062" xlink:href="#m194d7af007" y="146.293328"/>
     <use style="fill:#ff0000;stroke:#ff0000;" x="378.474545" xlink:href="#m194d7af007" y="146.293328"/>
     <use style="fill:#ff0000;stroke:#ff0000;" x="380.700736" xlink:href="#m194d7af007" y="146.293328"/>
     <use style="fill:#ff0000;stroke:#ff0000;" x="382.920993" xlink:href="#m194d7af007" y="144.576474"/>
     <use style="fill:#ff0000;stroke:#ff0000;" x="385.14496" xlink:href="#m194d7af007" y="137.709059"/>
     <use style="fill:#ff0000;stroke:#ff0000;" x="387.368926" xlink:href="#m194d7af007" y="134.282965"/>
     <use style="fill:#ff0000;stroke:#ff0000;" x="389.59215" xlink:href="#m194d7af007" y="125.675856"/>
     <use style="fill:#ff0000;stroke:#ff0000;" x="391.816116" xlink:href="#m194d7af007" y="125.675856"/>
     <use style="fill:#ff0000;stroke:#ff0000;" x="394.03934" xlink:href="#m194d7af007" y="125.683469"/>
     <use style="fill:#ff0000;stroke:#ff0000;" x="396.262565" xlink:href="#m194d7af007" y="115.382347"/>
     <use style="fill:#ff0000;stroke:#ff0000;" x="398.487273" xlink:href="#m194d7af007" y="117.106814"/>
    </g>
   </g>
   <g id="line2d_16">
    <path clip-path="url(#p2f1c7f6cf9)" d="M 73.832727 175.479841 
L 82.72785 175.479841 
L 84.951074 170.314052 
L 93.846197 170.32928 
L 96.069421 165.178718 
L 98.293387 161.745011 
L 102.739836 158.318917 
L 104.963802 158.318917 
L 107.187768 156.602063 
L 109.410993 156.602063 
L 111.635701 149.734649 
L 113.858925 148.017795 
L 120.531565 147.994954 
L 122.752564 146.285714 
L 124.977272 146.285714 
L 127.200496 151.436275 
L 129.42372 151.436275 
L 131.648428 158.30369 
L 136.094877 165.186332 
L 138.319585 170.336893 
L 140.542809 172.03852 
L 147.213966 192.640764 
L 149.436448 197.791325 
L 151.661156 197.791325 
L 153.885122 204.666354 
L 158.331571 204.666354 
L 165.001986 189.222284 
L 167.226694 185.773349 
L 171.673142 175.487454 
L 173.897108 165.186332 
L 178.343557 148.010181 
L 180.568265 129.117177 
L 182.791489 129.117177 
L 185.016197 122.242148 
L 187.239422 113.65788 
L 189.462646 111.941026 
L 193.91132 111.941026 
L 196.133061 115.374734 
L 198.357027 120.532908 
L 202.804959 137.709059 
L 205.028925 148.002568 
L 207.252891 163.439024 
L 209.476116 173.740146 
L 213.923306 197.783712 
L 218.370496 218.39357 
L 220.595204 230.411546 
L 222.817687 230.411546 
L 225.040911 240.712668 
L 227.264877 238.988201 
L 229.488843 233.845253 
L 231.712068 226.977838 
L 233.936034 216.676716 
L 236.16 208.092448 
L 238.382483 197.791325 
L 240.607932 175.479841 
L 242.830415 165.171105 
L 245.054381 146.2781 
L 247.278347 129.117177 
L 249.501571 117.099201 
L 251.724796 99.930664 
L 253.948762 93.063249 
L 256.172728 87.912688 
L 258.39521 84.47898 
L 260.619918 75.894712 
L 262.843143 81.045273 
L 265.070076 89.629542 
L 267.291075 99.938277 
L 269.514299 115.382347 
L 271.742716 127.41555 
L 273.96149 149.704194 
L 278.409422 184.064109 
L 280.636355 204.666354 
L 282.856612 220.110424 
L 285.079837 238.988201 
L 287.303803 249.289323 
L 289.527027 256.164352 
L 291.751735 261.314913 
L 293.974959 264.74862 
L 296.198184 254.447498 
L 298.422892 247.557242 
L 300.645374 242.414295 
L 302.86934 230.403932 
L 305.093306 209.809301 
L 307.316531 190.923911 
L 309.539755 173.755373 
L 311.764463 147.979727 
L 313.987687 129.10195 
L 316.210911 111.941026 
L 318.434878 93.055635 
L 320.658844 77.596338 
L 325.106034 63.853895 
L 327.329258 62.121814 
L 329.553225 63.846282 
L 331.776449 72.461004 
L 336.224381 103.34153 
L 338.448347 120.525295 
L 340.671572 142.844393 
L 342.895538 161.729784 
L 345.118762 187.490203 
L 347.34347 206.375594 
L 349.566694 226.977838 
L 351.79066 238.995814 
L 354.013143 254.455111 
L 356.236367 266.473087 
L 358.461075 280.207917 
L 365.132232 264.74862 
L 367.355456 257.881205 
L 369.57868 235.54688 
L 371.803388 221.81205 
L 374.02958 209.794074 
L 376.252062 178.890707 
L 378.474545 163.43141 
L 380.700736 137.701445 
L 382.920993 113.665493 
L 385.14496 94.757262 
L 387.368926 82.7469 
L 391.816116 62.137041 
L 394.03934 53.568 
L 396.262565 65.585976 
L 398.487273 75.887098 
L 398.487273 75.887098 
" style="fill:none;stroke:#008000;stroke-linecap:square;stroke-width:1.5;"/>
    <defs>
     <path d="M 0 3 
C 0.795609 3 1.55874 2.683901 2.12132 2.12132 
C 2.683901 1.55874 3 0.795609 3 0 
C 3 -0.795609 2.683901 -1.55874 2.12132 -2.12132 
C 1.55874 -2.683901 0.795609 -3 0 -3 
C -0.795609 -3 -1.55874 -2.683901 -2.12132 -2.12132 
C -2.683901 -1.55874 -3 -0.795609 -3 0 
C -3 0.795609 -2.683901 1.55874 -2.12132 2.12132 
C -1.55874 2.683901 -0.795609 3 0 3 
z
" id="mdc09030ecd" style="stroke:#008000;"/>
    </defs>
    <g clip-path="url(#p2f1c7f6cf9)">
     <use style="fill:#008000;stroke:#008000;" x="73.832727" xlink:href="#mdc09030ecd" y="175.479841"/>
     <use style="fill:#008000;stroke:#008000;" x="76.055952" xlink:href="#mdc09030ecd" y="175.479841"/>
     <use style="fill:#008000;stroke:#008000;" x="78.28066" xlink:href="#mdc09030ecd" y="175.479841"/>
     <use style="fill:#008000;stroke:#008000;" x="80.503884" xlink:href="#mdc09030ecd" y="175.479841"/>
     <use style="fill:#008000;stroke:#008000;" x="82.72785" xlink:href="#mdc09030ecd" y="175.479841"/>
     <use style="fill:#008000;stroke:#008000;" x="84.951074" xlink:href="#mdc09030ecd" y="170.314052"/>
     <use style="fill:#008000;stroke:#008000;" x="87.17504" xlink:href="#mdc09030ecd" y="170.314052"/>
     <use style="fill:#008000;stroke:#008000;" x="89.398265" xlink:href="#mdc09030ecd" y="170.314052"/>
     <use style="fill:#008000;stroke:#008000;" x="91.622231" xlink:href="#mdc09030ecd" y="170.32928"/>
     <use style="fill:#008000;stroke:#008000;" x="93.846197" xlink:href="#mdc09030ecd" y="170.32928"/>
     <use style="fill:#008000;stroke:#008000;" x="96.069421" xlink:href="#mdc09030ecd" y="165.178718"/>
     <use style="fill:#008000;stroke:#008000;" x="98.293387" xlink:href="#mdc09030ecd" y="161.745011"/>
     <use style="fill:#008000;stroke:#008000;" x="100.516612" xlink:href="#mdc09030ecd" y="160.028157"/>
     <use style="fill:#008000;stroke:#008000;" x="102.739836" xlink:href="#mdc09030ecd" y="158.318917"/>
     <use style="fill:#008000;stroke:#008000;" x="104.963802" xlink:href="#mdc09030ecd" y="158.318917"/>
     <use style="fill:#008000;stroke:#008000;" x="107.187768" xlink:href="#mdc09030ecd" y="156.602063"/>
     <use style="fill:#008000;stroke:#008000;" x="109.410993" xlink:href="#mdc09030ecd" y="156.602063"/>
     <use style="fill:#008000;stroke:#008000;" x="111.635701" xlink:href="#mdc09030ecd" y="149.734649"/>
     <use style="fill:#008000;stroke:#008000;" x="113.858925" xlink:href="#mdc09030ecd" y="148.017795"/>
     <use style="fill:#008000;stroke:#008000;" x="116.082149" xlink:href="#mdc09030ecd" y="148.017795"/>
     <use style="fill:#008000;stroke:#008000;" x="118.306115" xlink:href="#mdc09030ecd" y="147.994954"/>
     <use style="fill:#008000;stroke:#008000;" x="120.531565" xlink:href="#mdc09030ecd" y="147.994954"/>
     <use style="fill:#008000;stroke:#008000;" x="122.752564" xlink:href="#mdc09030ecd" y="146.285714"/>
     <use style="fill:#008000;stroke:#008000;" x="124.977272" xlink:href="#mdc09030ecd" y="146.285714"/>
     <use style="fill:#008000;stroke:#008000;" x="127.200496" xlink:href="#mdc09030ecd" y="151.436275"/>
     <use style="fill:#008000;stroke:#008000;" x="129.42372" xlink:href="#mdc09030ecd" y="151.436275"/>
     <use style="fill:#008000;stroke:#008000;" x="131.648428" xlink:href="#mdc09030ecd" y="158.30369"/>
     <use style="fill:#008000;stroke:#008000;" x="133.871653" xlink:href="#mdc09030ecd" y="161.737397"/>
     <use style="fill:#008000;stroke:#008000;" x="136.094877" xlink:href="#mdc09030ecd" y="165.186332"/>
     <use style="fill:#008000;stroke:#008000;" x="138.319585" xlink:href="#mdc09030ecd" y="170.336893"/>
     <use style="fill:#008000;stroke:#008000;" x="140.542809" xlink:href="#mdc09030ecd" y="172.03852"/>
     <use style="fill:#008000;stroke:#008000;" x="142.766034" xlink:href="#mdc09030ecd" y="178.905935"/>
     <use style="fill:#008000;stroke:#008000;" x="144.991483" xlink:href="#mdc09030ecd" y="185.773349"/>
     <use style="fill:#008000;stroke:#008000;" x="147.213966" xlink:href="#mdc09030ecd" y="192.640764"/>
     <use style="fill:#008000;stroke:#008000;" x="149.436448" xlink:href="#mdc09030ecd" y="197.791325"/>
     <use style="fill:#008000;stroke:#008000;" x="151.661156" xlink:href="#mdc09030ecd" y="197.791325"/>
     <use style="fill:#008000;stroke:#008000;" x="153.885122" xlink:href="#mdc09030ecd" y="204.666354"/>
     <use style="fill:#008000;stroke:#008000;" x="156.109089" xlink:href="#mdc09030ecd" y="204.666354"/>
     <use style="fill:#008000;stroke:#008000;" x="158.331571" xlink:href="#mdc09030ecd" y="204.666354"/>
     <use style="fill:#008000;stroke:#008000;" x="160.556279" xlink:href="#mdc09030ecd" y="199.523406"/>
     <use style="fill:#008000;stroke:#008000;" x="162.778761" xlink:href="#mdc09030ecd" y="194.372845"/>
     <use style="fill:#008000;stroke:#008000;" x="165.001986" xlink:href="#mdc09030ecd" y="189.222284"/>
     <use style="fill:#008000;stroke:#008000;" x="167.226694" xlink:href="#mdc09030ecd" y="185.773349"/>
     <use style="fill:#008000;stroke:#008000;" x="169.449918" xlink:href="#mdc09030ecd" y="180.622788"/>
     <use style="fill:#008000;stroke:#008000;" x="171.673142" xlink:href="#mdc09030ecd" y="175.487454"/>
     <use style="fill:#008000;stroke:#008000;" x="173.897108" xlink:href="#mdc09030ecd" y="165.186332"/>
     <use style="fill:#008000;stroke:#008000;" x="176.121075" xlink:href="#mdc09030ecd" y="156.59445"/>
     <use style="fill:#008000;stroke:#008000;" x="178.343557" xlink:href="#mdc09030ecd" y="148.010181"/>
     <use style="fill:#008000;stroke:#008000;" x="180.568265" xlink:href="#mdc09030ecd" y="129.117177"/>
     <use style="fill:#008000;stroke:#008000;" x="182.791489" xlink:href="#mdc09030ecd" y="129.117177"/>
     <use style="fill:#008000;stroke:#008000;" x="185.016197" xlink:href="#mdc09030ecd" y="122.242148"/>
     <use style="fill:#008000;stroke:#008000;" x="187.239422" xlink:href="#mdc09030ecd" y="113.65788"/>
     <use style="fill:#008000;stroke:#008000;" x="189.462646" xlink:href="#mdc09030ecd" y="111.941026"/>
     <use style="fill:#008000;stroke:#008000;" x="191.68587" xlink:href="#mdc09030ecd" y="111.941026"/>
     <use style="fill:#008000;stroke:#008000;" x="193.91132" xlink:href="#mdc09030ecd" y="111.941026"/>
     <use style="fill:#008000;stroke:#008000;" x="196.133061" xlink:href="#mdc09030ecd" y="115.374734"/>
     <use style="fill:#008000;stroke:#008000;" x="198.357027" xlink:href="#mdc09030ecd" y="120.532908"/>
     <use style="fill:#008000;stroke:#008000;" x="200.580993" xlink:href="#mdc09030ecd" y="129.117177"/>
     <use style="fill:#008000;stroke:#008000;" x="202.804959" xlink:href="#mdc09030ecd" y="137.709059"/>
     <use style="fill:#008000;stroke:#008000;" x="205.028925" xlink:href="#mdc09030ecd" y="148.002568"/>
     <use style="fill:#008000;stroke:#008000;" x="207.252891" xlink:href="#mdc09030ecd" y="163.439024"/>
     <use style="fill:#008000;stroke:#008000;" x="209.476116" xlink:href="#mdc09030ecd" y="173.740146"/>
     <use style="fill:#008000;stroke:#008000;" x="211.700082" xlink:href="#mdc09030ecd" y="185.758122"/>
     <use style="fill:#008000;stroke:#008000;" x="213.923306" xlink:href="#mdc09030ecd" y="197.783712"/>
     <use style="fill:#008000;stroke:#008000;" x="216.14653" xlink:href="#mdc09030ecd" y="208.092448"/>
     <use style="fill:#008000;stroke:#008000;" x="218.370496" xlink:href="#mdc09030ecd" y="218.39357"/>
     <use style="fill:#008000;stroke:#008000;" x="220.595204" xlink:href="#mdc09030ecd" y="230.411546"/>
     <use style="fill:#008000;stroke:#008000;" x="222.817687" xlink:href="#mdc09030ecd" y="230.411546"/>
     <use style="fill:#008000;stroke:#008000;" x="225.040911" xlink:href="#mdc09030ecd" y="240.712668"/>
     <use style="fill:#008000;stroke:#008000;" x="227.264877" xlink:href="#mdc09030ecd" y="238.988201"/>
     <use style="fill:#008000;stroke:#008000;" x="229.488843" xlink:href="#mdc09030ecd" y="233.845253"/>
     <use style="fill:#008000;stroke:#008000;" x="231.712068" xlink:href="#mdc09030ecd" y="226.977838"/>
     <use style="fill:#008000;stroke:#008000;" x="233.936034" xlink:href="#mdc09030ecd" y="216.676716"/>
     <use style="fill:#008000;stroke:#008000;" x="236.16" xlink:href="#mdc09030ecd" y="208.092448"/>
     <use style="fill:#008000;stroke:#008000;" x="238.382483" xlink:href="#mdc09030ecd" y="197.791325"/>
     <use style="fill:#008000;stroke:#008000;" x="240.607932" xlink:href="#mdc09030ecd" y="175.479841"/>
     <use style="fill:#008000;stroke:#008000;" x="242.830415" xlink:href="#mdc09030ecd" y="165.171105"/>
     <use style="fill:#008000;stroke:#008000;" x="245.054381" xlink:href="#mdc09030ecd" y="146.2781"/>
     <use style="fill:#008000;stroke:#008000;" x="247.278347" xlink:href="#mdc09030ecd" y="129.117177"/>
     <use style="fill:#008000;stroke:#008000;" x="249.501571" xlink:href="#mdc09030ecd" y="117.099201"/>
     <use style="fill:#008000;stroke:#008000;" x="251.724796" xlink:href="#mdc09030ecd" y="99.930664"/>
     <use style="fill:#008000;stroke:#008000;" x="253.948762" xlink:href="#mdc09030ecd" y="93.063249"/>
     <use style="fill:#008000;stroke:#008000;" x="256.172728" xlink:href="#mdc09030ecd" y="87.912688"/>
     <use style="fill:#008000;stroke:#008000;" x="258.39521" xlink:href="#mdc09030ecd" y="84.47898"/>
     <use style="fill:#008000;stroke:#008000;" x="260.619918" xlink:href="#mdc09030ecd" y="75.894712"/>
     <use style="fill:#008000;stroke:#008000;" x="262.843143" xlink:href="#mdc09030ecd" y="81.045273"/>
     <use style="fill:#008000;stroke:#008000;" x="265.070076" xlink:href="#mdc09030ecd" y="89.629542"/>
     <use style="fill:#008000;stroke:#008000;" x="267.291075" xlink:href="#mdc09030ecd" y="99.938277"/>
     <use style="fill:#008000;stroke:#008000;" x="269.514299" xlink:href="#mdc09030ecd" y="115.382347"/>
     <use style="fill:#008000;stroke:#008000;" x="271.742716" xlink:href="#mdc09030ecd" y="127.41555"/>
     <use style="fill:#008000;stroke:#008000;" x="273.96149" xlink:href="#mdc09030ecd" y="149.704194"/>
     <use style="fill:#008000;stroke:#008000;" x="276.184714" xlink:href="#mdc09030ecd" y="166.872731"/>
     <use style="fill:#008000;stroke:#008000;" x="278.409422" xlink:href="#mdc09030ecd" y="184.064109"/>
     <use style="fill:#008000;stroke:#008000;" x="280.636355" xlink:href="#mdc09030ecd" y="204.666354"/>
     <use style="fill:#008000;stroke:#008000;" x="282.856612" xlink:href="#mdc09030ecd" y="220.110424"/>
     <use style="fill:#008000;stroke:#008000;" x="285.079837" xlink:href="#mdc09030ecd" y="238.988201"/>
     <use style="fill:#008000;stroke:#008000;" x="287.303803" xlink:href="#mdc09030ecd" y="249.289323"/>
     <use style="fill:#008000;stroke:#008000;" x="289.527027" xlink:href="#mdc09030ecd" y="256.164352"/>
     <use style="fill:#008000;stroke:#008000;" x="291.751735" xlink:href="#mdc09030ecd" y="261.314913"/>
     <use style="fill:#008000;stroke:#008000;" x="293.974959" xlink:href="#mdc09030ecd" y="264.74862"/>
     <use style="fill:#008000;stroke:#008000;" x="296.198184" xlink:href="#mdc09030ecd" y="254.447498"/>
     <use style="fill:#008000;stroke:#008000;" x="298.422892" xlink:href="#mdc09030ecd" y="247.557242"/>
     <use style="fill:#008000;stroke:#008000;" x="300.645374" xlink:href="#mdc09030ecd" y="242.414295"/>
     <use style="fill:#008000;stroke:#008000;" x="302.86934" xlink:href="#mdc09030ecd" y="230.403932"/>
     <use style="fill:#008000;stroke:#008000;" x="305.093306" xlink:href="#mdc09030ecd" y="209.809301"/>
     <use style="fill:#008000;stroke:#008000;" x="307.316531" xlink:href="#mdc09030ecd" y="190.923911"/>
     <use style="fill:#008000;stroke:#008000;" x="309.539755" xlink:href="#mdc09030ecd" y="173.755373"/>
     <use style="fill:#008000;stroke:#008000;" x="311.764463" xlink:href="#mdc09030ecd" y="147.979727"/>
     <use style="fill:#008000;stroke:#008000;" x="313.987687" xlink:href="#mdc09030ecd" y="129.10195"/>
     <use style="fill:#008000;stroke:#008000;" x="316.210911" xlink:href="#mdc09030ecd" y="111.941026"/>
     <use style="fill:#008000;stroke:#008000;" x="318.434878" xlink:href="#mdc09030ecd" y="93.055635"/>
     <use style="fill:#008000;stroke:#008000;" x="320.658844" xlink:href="#mdc09030ecd" y="77.596338"/>
     <use style="fill:#008000;stroke:#008000;" x="322.882068" xlink:href="#mdc09030ecd" y="70.72131"/>
     <use style="fill:#008000;stroke:#008000;" x="325.106034" xlink:href="#mdc09030ecd" y="63.853895"/>
     <use style="fill:#008000;stroke:#008000;" x="327.329258" xlink:href="#mdc09030ecd" y="62.121814"/>
     <use style="fill:#008000;stroke:#008000;" x="329.553225" xlink:href="#mdc09030ecd" y="63.846282"/>
     <use style="fill:#008000;stroke:#008000;" x="331.776449" xlink:href="#mdc09030ecd" y="72.461004"/>
     <use style="fill:#008000;stroke:#008000;" x="334.000415" xlink:href="#mdc09030ecd" y="87.905074"/>
     <use style="fill:#008000;stroke:#008000;" x="336.224381" xlink:href="#mdc09030ecd" y="103.34153"/>
     <use style="fill:#008000;stroke:#008000;" x="338.448347" xlink:href="#mdc09030ecd" y="120.525295"/>
     <use style="fill:#008000;stroke:#008000;" x="340.671572" xlink:href="#mdc09030ecd" y="142.844393"/>
     <use style="fill:#008000;stroke:#008000;" x="342.895538" xlink:href="#mdc09030ecd" y="161.729784"/>
     <use style="fill:#008000;stroke:#008000;" x="345.118762" xlink:href="#mdc09030ecd" y="187.490203"/>
     <use style="fill:#008000;stroke:#008000;" x="347.34347" xlink:href="#mdc09030ecd" y="206.375594"/>
     <use style="fill:#008000;stroke:#008000;" x="349.566694" xlink:href="#mdc09030ecd" y="226.977838"/>
     <use style="fill:#008000;stroke:#008000;" x="351.79066" xlink:href="#mdc09030ecd" y="238.995814"/>
     <use style="fill:#008000;stroke:#008000;" x="354.013143" xlink:href="#mdc09030ecd" y="254.455111"/>
     <use style="fill:#008000;stroke:#008000;" x="356.236367" xlink:href="#mdc09030ecd" y="266.473087"/>
     <use style="fill:#008000;stroke:#008000;" x="358.461075" xlink:href="#mdc09030ecd" y="280.207917"/>
     <use style="fill:#008000;stroke:#008000;" x="360.684299" xlink:href="#mdc09030ecd" y="275.049742"/>
     <use style="fill:#008000;stroke:#008000;" x="362.909007" xlink:href="#mdc09030ecd" y="269.899181"/>
     <use style="fill:#008000;stroke:#008000;" x="365.132232" xlink:href="#mdc09030ecd" y="264.74862"/>
     <use style="fill:#008000;stroke:#008000;" x="367.355456" xlink:href="#mdc09030ecd" y="257.881205"/>
     <use style="fill:#008000;stroke:#008000;" x="369.57868" xlink:href="#mdc09030ecd" y="235.54688"/>
     <use style="fill:#008000;stroke:#008000;" x="371.803388" xlink:href="#mdc09030ecd" y="221.81205"/>
     <use style="fill:#008000;stroke:#008000;" x="374.02958" xlink:href="#mdc09030ecd" y="209.794074"/>
     <use style="fill:#008000;stroke:#008000;" x="376.252062" xlink:href="#mdc09030ecd" y="178.890707"/>
     <use style="fill:#008000;stroke:#008000;" x="378.474545" xlink:href="#mdc09030ecd" y="163.43141"/>
     <use style="fill:#008000;stroke:#008000;" x="380.700736" xlink:href="#mdc09030ecd" y="137.701445"/>
     <use style="fill:#008000;stroke:#008000;" x="382.920993" xlink:href="#mdc09030ecd" y="113.665493"/>
     <use style="fill:#008000;stroke:#008000;" x="385.14496" xlink:href="#mdc09030ecd" y="94.757262"/>
     <use style="fill:#008000;stroke:#008000;" x="387.368926" xlink:href="#mdc09030ecd" y="82.7469"/>
     <use style="fill:#008000;stroke:#008000;" x="389.59215" xlink:href="#mdc09030ecd" y="72.453391"/>
     <use style="fill:#008000;stroke:#008000;" x="391.816116" xlink:href="#mdc09030ecd" y="62.137041"/>
     <use style="fill:#008000;stroke:#008000;" x="394.03934" xlink:href="#mdc09030ecd" y="53.568"/>
     <use style="fill:#008000;stroke:#008000;" x="396.262565" xlink:href="#mdc09030ecd" y="65.585976"/>
     <use style="fill:#008000;stroke:#008000;" x="398.487273" xlink:href="#mdc09030ecd" y="75.887098"/>
    </g>
   </g>
   <g id="patch_3">
    <path d="M 57.6 307.584 
L 57.6 41.472 
" style="fill:none;stroke:#000000;stroke-linecap:square;stroke-linejoin:miter;stroke-width:0.8;"/>
   </g>
   <g id="patch_4">
    <path d="M 414.72 307.584 
L 414.72 41.472 
" style="fill:none;stroke:#000000;stroke-linecap:square;stroke-linejoin:miter;stroke-width:0.8;"/>
   </g>
   <g id="patch_5">
    <path d="M 57.6 307.584 
L 414.72 307.584 
" style="fill:none;stroke:#000000;stroke-linecap:square;stroke-linejoin:miter;stroke-width:0.8;"/>
   </g>
   <g id="patch_6">
    <path d="M 57.6 41.472 
L 414.72 41.472 
" style="fill:none;stroke:#000000;stroke-linecap:square;stroke-linejoin:miter;stroke-width:0.8;"/>
   </g>
   <g id="text_16">
    <!-- Movement of Three-Way Coupled Pendulum -->
    <defs>
     <path d="M 9.8125 72.90625 
L 24.515625 72.90625 
L 43.109375 23.296875 
L 61.8125 72.90625 
L 76.515625 72.90625 
L 76.515625 0 
L 66.890625 0 
L 66.890625 64.015625 
L 48.09375 14.015625 
L 38.1875 14.015625 
L 19.390625 64.015625 
L 19.390625 0 
L 9.8125 0 
z
" id="DejaVuSans-77"/>
     <path d="M 30.609375 48.390625 
Q 23.390625 48.390625 19.1875 42.75 
Q 14.984375 37.109375 14.984375 27.296875 
Q 14.984375 17.484375 19.15625 11.84375 
Q 23.34375 6.203125 30.609375 6.203125 
Q 37.796875 6.203125 41.984375 11.859375 
Q 46.1875 17.53125 46.1875 27.296875 
Q 46.1875 37.015625 41.984375 42.703125 
Q 37.796875 48.390625 30.609375 48.390625 
z
M 30.609375 56 
Q 42.328125 56 49.015625 48.375 
Q 55.71875 40.765625 55.71875 27.296875 
Q 55.71875 13.875 49.015625 6.21875 
Q 42.328125 -1.421875 30.609375 -1.421875 
Q 18.84375 -1.421875 12.171875 6.21875 
Q 5.515625 13.875 5.515625 27.296875 
Q 5.515625 40.765625 12.171875 48.375 
Q 18.84375 56 30.609375 56 
z
" id="DejaVuSans-111"/>
     <path d="M 2.984375 54.6875 
L 12.5 54.6875 
L 29.59375 8.796875 
L 46.6875 54.6875 
L 56.203125 54.6875 
L 35.6875 0 
L 23.484375 0 
z
" id="DejaVuSans-118"/>
     <path d="M 54.890625 33.015625 
L 54.890625 0 
L 45.90625 0 
L 45.90625 32.71875 
Q 45.90625 40.484375 42.875 44.328125 
Q 39.84375 48.1875 33.796875 48.1875 
Q 26.515625 48.1875 22.3125 43.546875 
Q 18.109375 38.921875 18.109375 30.90625 
L 18.109375 0 
L 9.078125 0 
L 9.078125 54.6875 
L 18.109375 54.6875 
L 18.109375 46.1875 
Q 21.34375 51.125 25.703125 53.5625 
Q 30.078125 56 35.796875 56 
Q 45.21875 56 50.046875 50.171875 
Q 54.890625 44.34375 54.890625 33.015625 
z
" id="DejaVuSans-110"/>
     <path id="DejaVuSans-32"/>
     <path d="M 37.109375 75.984375 
L 37.109375 68.5 
L 28.515625 68.5 
Q 23.6875 68.5 21.796875 66.546875 
Q 19.921875 64.59375 19.921875 59.515625 
L 19.921875 54.6875 
L 34.71875 54.6875 
L 34.71875 47.703125 
L 19.921875 47.703125 
L 19.921875 0 
L 10.890625 0 
L 10.890625 47.703125 
L 2.296875 47.703125 
L 2.296875 54.6875 
L 10.890625 54.6875 
L 10.890625 58.5 
Q 10.890625 67.625 15.140625 71.796875 
Q 19.390625 75.984375 28.609375 75.984375 
z
" id="DejaVuSans-102"/>
     <path d="M 54.890625 33.015625 
L 54.890625 0 
L 45.90625 0 
L 45.90625 32.71875 
Q 45.90625 40.484375 42.875 44.328125 
Q 39.84375 48.1875 33.796875 48.1875 
Q 26.515625 48.1875 22.3125 43.546875 
Q 18.109375 38.921875 18.109375 30.90625 
L 18.109375 0 
L 9.078125 0 
L 9.078125 75.984375 
L 18.109375 75.984375 
L 18.109375 46.1875 
Q 21.34375 51.125 25.703125 53.5625 
Q 30.078125 56 35.796875 56 
Q 45.21875 56 50.046875 50.171875 
Q 54.890625 44.34375 54.890625 33.015625 
z
" id="DejaVuSans-104"/>
     <path d="M 41.109375 46.296875 
Q 39.59375 47.171875 37.8125 47.578125 
Q 36.03125 48 33.890625 48 
Q 26.265625 48 22.1875 43.046875 
Q 18.109375 38.09375 18.109375 28.8125 
L 18.109375 0 
L 9.078125 0 
L 9.078125 54.6875 
L 18.109375 54.6875 
L 18.109375 46.1875 
Q 20.953125 51.171875 25.484375 53.578125 
Q 30.03125 56 36.53125 56 
Q 37.453125 56 38.578125 55.875 
Q 39.703125 55.765625 41.0625 55.515625 
z
" id="DejaVuSans-114"/>
     <path d="M 4.890625 31.390625 
L 31.203125 31.390625 
L 31.203125 23.390625 
L 4.890625 23.390625 
z
" id="DejaVuSans-45"/>
     <path d="M 3.328125 72.90625 
L 13.28125 72.90625 
L 28.609375 11.28125 
L 43.890625 72.90625 
L 54.984375 72.90625 
L 70.3125 11.28125 
L 85.59375 72.90625 
L 95.609375 72.90625 
L 77.296875 0 
L 64.890625 0 
L 49.515625 63.28125 
L 33.984375 0 
L 21.578125 0 
z
" id="DejaVuSans-87"/>
     <path d="M 34.28125 27.484375 
Q 23.390625 27.484375 19.1875 25 
Q 14.984375 22.515625 14.984375 16.5 
Q 14.984375 11.71875 18.140625 8.90625 
Q 21.296875 6.109375 26.703125 6.109375 
Q 34.1875 6.109375 38.703125 11.40625 
Q 43.21875 16.703125 43.21875 25.484375 
L 43.21875 27.484375 
z
M 52.203125 31.203125 
L 52.203125 0 
L 43.21875 0 
L 43.21875 8.296875 
Q 40.140625 3.328125 35.546875 0.953125 
Q 30.953125 -1.421875 24.3125 -1.421875 
Q 15.921875 -1.421875 10.953125 3.296875 
Q 6 8.015625 6 15.921875 
Q 6 25.140625 12.171875 29.828125 
Q 18.359375 34.515625 30.609375 34.515625 
L 43.21875 34.515625 
L 43.21875 35.40625 
Q 43.21875 41.609375 39.140625 45 
Q 35.0625 48.390625 27.6875 48.390625 
Q 23 48.390625 18.546875 47.265625 
Q 14.109375 46.140625 10.015625 43.890625 
L 10.015625 52.203125 
Q 14.9375 54.109375 19.578125 55.046875 
Q 24.21875 56 28.609375 56 
Q 40.484375 56 46.34375 49.84375 
Q 52.203125 43.703125 52.203125 31.203125 
z
" id="DejaVuSans-97"/>
     <path d="M 32.171875 -5.078125 
Q 28.375 -14.84375 24.75 -17.8125 
Q 21.140625 -20.796875 15.09375 -20.796875 
L 7.90625 -20.796875 
L 7.90625 -13.28125 
L 13.1875 -13.28125 
Q 16.890625 -13.28125 18.9375 -11.515625 
Q 21 -9.765625 23.484375 -3.21875 
L 25.09375 0.875 
L 2.984375 54.6875 
L 12.5 54.6875 
L 29.59375 11.921875 
L 46.6875 54.6875 
L 56.203125 54.6875 
z
" id="DejaVuSans-121"/>
     <path d="M 64.40625 67.28125 
L 64.40625 56.890625 
Q 59.421875 61.53125 53.78125 63.8125 
Q 48.140625 66.109375 41.796875 66.109375 
Q 29.296875 66.109375 22.65625 58.46875 
Q 16.015625 50.828125 16.015625 36.375 
Q 16.015625 21.96875 22.65625 14.328125 
Q 29.296875 6.6875 41.796875 6.6875 
Q 48.140625 6.6875 53.78125 8.984375 
Q 59.421875 11.28125 64.40625 15.921875 
L 64.40625 5.609375 
Q 59.234375 2.09375 53.4375 0.328125 
Q 47.65625 -1.421875 41.21875 -1.421875 
Q 24.65625 -1.421875 15.125 8.703125 
Q 5.609375 18.84375 5.609375 36.375 
Q 5.609375 53.953125 15.125 64.078125 
Q 24.65625 74.21875 41.21875 74.21875 
Q 47.75 74.21875 53.53125 72.484375 
Q 59.328125 70.75 64.40625 67.28125 
z
" id="DejaVuSans-67"/>
     <path d="M 19.671875 64.796875 
L 19.671875 37.40625 
L 32.078125 37.40625 
Q 38.96875 37.40625 42.71875 40.96875 
Q 46.484375 44.53125 46.484375 51.125 
Q 46.484375 57.671875 42.71875 61.234375 
Q 38.96875 64.796875 32.078125 64.796875 
z
M 9.8125 72.90625 
L 32.078125 72.90625 
Q 44.34375 72.90625 50.609375 67.359375 
Q 56.890625 61.8125 56.890625 51.125 
Q 56.890625 40.328125 50.609375 34.8125 
Q 44.34375 29.296875 32.078125 29.296875 
L 19.671875 29.296875 
L 19.671875 0 
L 9.8125 0 
z
" id="DejaVuSans-80"/>
    </defs>
    <g transform="translate(103.660313 35.472)scale(0.12 -0.12)">
     <use xlink:href="#DejaVuSans-77"/>
     <use x="86.279297" xlink:href="#DejaVuSans-111"/>
     <use x="147.460938" xlink:href="#DejaVuSans-118"/>
     <use x="206.640625" xlink:href="#DejaVuSans-101"/>
     <use x="268.164062" xlink:href="#DejaVuSans-109"/>
     <use x="365.576172" xlink:href="#DejaVuSans-101"/>
     <use x="427.099609" xlink:href="#DejaVuSans-110"/>
     <use x="490.478516" xlink:href="#DejaVuSans-116"/>
     <use x="529.6875" xlink:href="#DejaVuSans-32"/>
     <use x="561.474609" xlink:href="#DejaVuSans-111"/>
     <use x="622.65625" xlink:href="#DejaVuSans-102"/>
     <use x="657.861328" xlink:href="#DejaVuSans-32"/>
     <use x="689.648438" xlink:href="#DejaVuSans-84"/>
     <use x="750.732422" xlink:href="#DejaVuSans-104"/>
     <use x="814.111328" xlink:href="#DejaVuSans-114"/>
     <use x="855.193359" xlink:href="#DejaVuSans-101"/>
     <use x="916.716797" xlink:href="#DejaVuSans-101"/>
     <use x="978.240234" xlink:href="#DejaVuSans-45"/>
     <use x="1014.261719" xlink:href="#DejaVuSans-87"/>
     <use x="1113.044922" xlink:href="#DejaVuSans-97"/>
     <use x="1174.324219" xlink:href="#DejaVuSans-121"/>
     <use x="1233.503906" xlink:href="#DejaVuSans-32"/>
     <use x="1265.291016" xlink:href="#DejaVuSans-67"/>
     <use x="1335.115234" xlink:href="#DejaVuSans-111"/>
     <use x="1396.296875" xlink:href="#DejaVuSans-117"/>
     <use x="1459.675781" xlink:href="#DejaVuSans-112"/>
     <use x="1523.152344" xlink:href="#DejaVuSans-108"/>
     <use x="1550.935547" xlink:href="#DejaVuSans-101"/>
     <use x="1612.458984" xlink:href="#DejaVuSans-100"/>
     <use x="1675.935547" xlink:href="#DejaVuSans-32"/>
     <use x="1707.722656" xlink:href="#DejaVuSans-80"/>
     <use x="1767.978516" xlink:href="#DejaVuSans-101"/>
     <use x="1829.501953" xlink:href="#DejaVuSans-110"/>
     <use x="1892.880859" xlink:href="#DejaVuSans-100"/>
     <use x="1956.357422" xlink:href="#DejaVuSans-117"/>
     <use x="2019.736328" xlink:href="#DejaVuSans-108"/>
     <use x="2047.519531" xlink:href="#DejaVuSans-117"/>
     <use x="2110.898438" xlink:href="#DejaVuSans-109"/>
    </g>
   </g>
   <g id="legend_1">
    <g id="patch_7">
     <path d="M 216.668594 302.584 
L 255.651406 302.584 
Q 257.651406 302.584 257.651406 300.584 
L 257.651406 257.549625 
Q 257.651406 255.549625 255.651406 255.549625 
L 216.668594 255.549625 
Q 214.668594 255.549625 214.668594 257.549625 
L 214.668594 300.584 
Q 214.668594 302.584 216.668594 302.584 
z
" style="fill:#ffffff;opacity:0.8;stroke:#cccccc;stroke-linejoin:miter;"/>
    </g>
    <g id="line2d_17">
     <path d="M 218.668594 263.648062 
L 238.668594 263.648062 
" style="fill:none;stroke:#0000ff;stroke-linecap:square;stroke-width:1.5;"/>
    </g>
    <g id="line2d_18">
     <g>
      <use style="fill:#0000ff;stroke:#0000ff;" x="228.668594" xlink:href="#m059c3ca949" y="263.648062"/>
     </g>
    </g>
    <g id="text_17">
     <!-- A -->
     <g transform="translate(246.668594 267.148062)scale(0.1 -0.1)">
      <use xlink:href="#DejaVuSans-65"/>
     </g>
    </g>
    <g id="line2d_19">
     <path d="M 218.668594 278.326188 
L 238.668594 278.326188 
" style="fill:none;stroke:#ff0000;stroke-linecap:square;stroke-width:1.5;"/>
    </g>
    <g id="line2d_20">
     <g>
      <use style="fill:#ff0000;stroke:#ff0000;" x="228.668594" xlink:href="#m194d7af007" y="278.326188"/>
     </g>
    </g>
    <g id="text_18">
     <!-- B -->
     <defs>
      <path d="M 19.671875 34.8125 
L 19.671875 8.109375 
L 35.5 8.109375 
Q 43.453125 8.109375 47.28125 11.40625 
Q 51.125 14.703125 51.125 21.484375 
Q 51.125 28.328125 47.28125 31.5625 
Q 43.453125 34.8125 35.5 34.8125 
z
M 19.671875 64.796875 
L 19.671875 42.828125 
L 34.28125 42.828125 
Q 41.5 42.828125 45.03125 45.53125 
Q 48.578125 48.25 48.578125 53.8125 
Q 48.578125 59.328125 45.03125 62.0625 
Q 41.5 64.796875 34.28125 64.796875 
z
M 9.8125 72.90625 
L 35.015625 72.90625 
Q 46.296875 72.90625 52.390625 68.21875 
Q 58.5 63.53125 58.5 54.890625 
Q 58.5 48.1875 55.375 44.234375 
Q 52.25 40.28125 46.1875 39.3125 
Q 53.46875 37.75 57.5 32.78125 
Q 61.53125 27.828125 61.53125 20.40625 
Q 61.53125 10.640625 54.890625 5.3125 
Q 48.25 0 35.984375 0 
L 9.8125 0 
z
" id="DejaVuSans-66"/>
     </defs>
     <g transform="translate(246.668594 281.826188)scale(0.1 -0.1)">
      <use xlink:href="#DejaVuSans-66"/>
     </g>
    </g>
    <g id="line2d_21">
     <path d="M 218.668594 293.004312 
L 238.668594 293.004312 
" style="fill:none;stroke:#008000;stroke-linecap:square;stroke-width:1.5;"/>
    </g>
    <g id="line2d_22">
     <g>
      <use style="fill:#008000;stroke:#008000;" x="228.668594" xlink:href="#mdc09030ecd" y="293.004312"/>
     </g>
    </g>
    <g id="text_19">
     <!-- C -->
     <g transform="translate(246.668594 296.504312)scale(0.1 -0.1)">
      <use xlink:href="#DejaVuSans-67"/>
     </g>
    </g>
   </g>
  </g>
 </g>
 <defs>
  <clipPath id="p2f1c7f6cf9">
   <rect height="266.112" width="357.12" x="57.6" y="41.472"/>
  </clipPath>
 </defs>
</svg>
